<svg width="369" height="199" viewBox="0 0 369 199" fill="none" xmlns="http://www.w3.org/2000/svg">
<path d="M121.9 63.6C121.9 63.6 147.8 35.1 192.2 30.3C192.2 30.3 182.7 16.9 193.4 4.89998C193.4 4.89998 208.7 -7.20002 219.4 8.49998C219.4 8.49998 227.4 17.5 217.4 29.9C217.4 29.9 270.5 39.9 292.6 68.5C292.6 68.5 328.3 98.5 325.3 164.8H85.7C85.7 164.8 84.3 151 85.3 138.7L6.69998 139C6.69998 139 -0.100021 136 0.0999788 129.2C0.0999788 129.2 -1.40002 120.1 7.79998 119.9L128.4 120.2C128.4 120.2 136.9 116.9 136.5 110.3C136.5 110.3 136.8 103.4 125.5 101.6L47 102C47 102 39.4 99.4 39.4 92C39.4 92 38.4 85.5 46 82.8L153.9 83.3C153.9 83.3 159.4 82.4 160.6 73.3C160.6 73.3 161.8 65.7 152.8 64.4L121.9 63.6Z" fill="#D08C30"/>
<path d="M48.7999 176.5C48.7999 176.5 32.4999 186.3 48.7999 198.2H359.9C359.9 198.2 379 187.8 359.9 176.5H48.7999Z" fill="#D08C30"/>
</svg>
