<svg width="36" height="36" viewBox="0 0 36 36" fill="none" xmlns="http://www.w3.org/2000/svg">
<g clip-path="url(#clip0_420_4995)">
<path d="M26.0476 0.229402C26.3584 -0.0708182 26.8537 -0.0621629 27.1539 0.24862C27.4467 0.551847 27.4467 1.03251 27.1539 1.33566L10.4951 17.996L27.1555 34.6548C27.4662 34.955 27.4748 35.4503 27.1747 35.7612C26.8745 36.0719 26.3792 36.0805 26.0683 35.7804C26.0618 35.7741 26.0554 35.7677 26.0491 35.7612L8.83639 18.5484C8.53096 18.2429 8.53096 17.7477 8.83639 17.4421L26.0476 0.229402Z" fill="#F44336"/>
<path d="M26.6014 35.9912C27.0335 35.992 27.3844 35.6423 27.3853 35.2102C27.3856 35.0019 27.3029 34.802 27.1554 34.6549L10.495 17.9961L27.1554 1.33733C27.4613 1.03139 27.4613 0.535397 27.1554 0.229456C26.8494 -0.0764853 26.3534 -0.0764853 26.0475 0.229456L8.83477 17.4422C8.52934 17.7477 8.52934 18.243 8.83477 18.5485L26.0475 35.7612C26.1942 35.9084 26.3936 35.9912 26.6014 35.9912Z" fill="#ACACAC"/>
</g>
<defs>
<clipPath id="clip0_420_4995">
<rect width="36" height="36" fill="white" transform="matrix(-1 0 0 1 36 0)"/>
</clipPath>
</defs>
</svg>
