<svg xmlns="http://www.w3.org/2000/svg" width="24" height="24" viewBox="0 0 24 24" fill="none">
<path d="M18.1775 17.8442C16.6361 17.8428 15.3853 19.0911 15.3838 20.6325C15.3823 22.1739 16.6307 23.4246 18.172 23.4262C19.7134 23.4276 20.9642 22.1793 20.9657 20.6379C20.9657 20.637 20.9657 20.6361 20.9657 20.6352C20.9642 19.0955 19.7172 17.8472 18.1775 17.8442Z" fill="#d08c30"/>
<path d="M23.1278 4.4797C23.061 4.46677 22.9932 4.4602 22.9251 4.46009H5.93181L5.66267 2.65955C5.49499 1.46378 4.47216 0.574098 3.26466 0.57373H1.07655C0.481978 0.57373 0 1.05571 0 1.65028C0 2.24486 0.481978 2.72683 1.07655 2.72683H3.26734C3.40423 2.72583 3.52008 2.82776 3.53648 2.9637L5.19436 14.3267C5.42166 15.7706 6.66363 16.8358 8.12528 16.8404H19.3241C20.7313 16.8423 21.9454 15.8532 22.2281 14.4747L23.9802 5.74118C24.0931 5.15743 23.7115 4.59266 23.1278 4.4797Z" fill="#d08c30"/>
<path d="M11.3405 20.516C11.275 19.0198 10.0402 17.842 8.54256 17.8472C7.00242 17.9094 5.80434 19.2084 5.86658 20.7486C5.92629 22.2264 7.12842 23.4009 8.60716 23.4264H8.67444C10.2144 23.3589 11.408 22.0559 11.3405 20.516Z" fill="#d08c30"/>
</svg>