<svg width="80" height="80" viewBox="0 0 80 80" fill="none" xmlns="http://www.w3.org/2000/svg">
<path d="M61.022 34.616C59.2329 35.7591 57.7997 37.3804 56.8849 39.2963C55.97 41.2122 55.61 43.346 55.8458 45.456L39.9995 55.6135L24.1508 45.4622C24.3916 43.3515 24.0333 41.2157 23.117 39.2991C22.2007 37.3825 20.7634 35.7626 18.9695 34.6247C16.5882 32.9834 13.6926 32.2613 10.8195 32.5922C9.46426 32.7249 8.15502 33.1551 6.98528 33.8523C5.81553 34.5494 4.81412 35.4962 4.05256 36.625C3.29099 37.7539 2.78806 39.0369 2.57966 40.3826C2.37127 41.7283 2.46256 43.1034 2.847 44.4097C3.61715 47.1962 5.37193 49.6088 7.78575 51.1997C9.51409 52.4387 11.5566 53.1654 13.6791 53.2965C15.8016 53.4276 17.9181 52.9578 19.7858 51.941L32.087 60.6747L20.3808 68.181C19.8274 68.5325 19.3503 68.9916 18.9776 69.531C18.605 70.0704 18.3444 70.679 18.2112 71.321C18.0781 71.9629 18.0752 72.625 18.2027 73.2681C18.3301 73.9111 18.5854 74.5221 18.9533 75.0647C19.3197 75.6062 19.7907 76.0689 20.3385 76.4258C20.8864 76.7827 21.5 77.0266 22.1433 77.143C22.7867 77.2595 23.4469 77.2462 24.085 77.1039C24.7232 76.9617 25.3265 76.6934 25.8595 76.3147L39.9995 66.2872L54.1395 76.3222C54.6731 76.7126 55.28 76.9912 55.9239 77.1414C56.5678 77.2916 57.2353 77.3103 57.8866 77.1964C58.5378 77.0824 59.1594 76.8382 59.714 76.4783C60.2686 76.1184 60.7449 75.6503 61.1143 75.1019C61.4837 74.5536 61.7385 73.9363 61.8637 73.2871C61.9888 72.6379 61.9816 71.9701 61.8425 71.3238C61.7034 70.6774 61.4353 70.0658 61.0541 69.5256C60.673 68.9853 60.1868 68.5276 59.6245 68.1797L47.9045 60.6797L60.2145 51.9422C62.082 52.9594 64.1983 53.4296 66.3208 53.299C68.4433 53.1683 70.4859 52.442 72.2145 51.2035C77.352 47.736 79.0295 41.1935 75.9508 36.6185C72.872 32.0435 66.1708 31.1485 61.022 34.616V34.616ZM24.412 74.281C23.8779 74.6405 23.2245 74.777 22.5911 74.6614C21.9577 74.5458 21.3947 74.1872 21.022 73.6622C20.8416 73.3961 20.7165 73.0965 20.6541 72.7811C20.5916 72.4658 20.5932 72.1411 20.6586 71.8263C20.724 71.5116 20.8519 71.2132 21.0348 70.9488C21.2177 70.6844 21.4518 70.4594 21.7233 70.2872L34.2845 62.2322L37.8333 64.7497L24.412 74.281ZM59.337 71.8272C59.4349 72.3015 59.3879 72.7943 59.2019 73.2414C59.016 73.6886 58.6997 74.0694 58.2944 74.3344C57.889 74.5994 57.4133 74.7362 56.9291 74.7271C56.4449 74.7181 55.9746 74.5635 55.5795 74.2835L20.5308 49.4085C20.317 49.2569 20.0611 49.1764 19.7991 49.1781C19.5372 49.1799 19.2824 49.264 19.0708 49.4185C17.5899 50.3849 15.8488 50.875 14.0813 50.8229C12.3138 50.7708 10.6046 50.1791 9.18325 49.1272C7.27087 47.8728 5.87815 45.9676 5.26325 43.7647C4.96902 42.8024 4.89366 41.7865 5.04268 40.7914C5.19169 39.7962 5.56132 38.847 6.12452 38.0131C6.68771 37.1792 7.43022 36.4818 8.29771 35.9719C9.1652 35.4619 10.1357 35.1524 11.1383 35.066C13.4108 34.8109 15.6988 35.3882 17.5783 36.691C19.0849 37.6157 20.2725 38.9792 20.9818 40.5985C21.691 42.2178 21.8878 44.0153 21.5458 45.7497C21.4815 46.004 21.4988 46.272 21.5953 46.5158C21.6918 46.7597 21.8625 46.967 22.0833 47.1085L58.2758 70.286C58.5472 70.4583 58.7811 70.6836 58.9635 70.9484C59.1458 71.2132 59.2729 71.5121 59.337 71.8272V71.8272ZM70.812 49.1247C69.3902 50.1764 67.6806 50.7677 65.9129 50.8193C64.1452 50.8709 62.404 50.3803 60.9233 49.4135C60.7116 49.259 60.4568 49.1749 60.1949 49.1732C59.9329 49.1714 59.677 49.2519 59.4633 49.4035L45.6345 59.221L42.3195 57.096L57.912 47.096C58.1323 46.9546 58.3027 46.7477 58.3991 46.5044C58.4956 46.2611 58.5132 45.9936 58.4495 45.7397C58.1143 44.005 58.3148 42.2094 59.0243 40.5914C59.7339 38.9734 60.9189 37.6095 62.422 36.681C66.422 33.9847 71.5645 34.5797 73.8758 38.0035C76.187 41.4272 74.8108 46.4285 70.812 49.1247V49.1247Z" fill="#151618"/>
<path d="M53.7251 45.2499C53.9501 43.9998 57.2838 27.4574 57.2838 27.4574C60.1771 27.2056 62.861 25.8447 64.7738 23.6594C66.6867 21.474 67.6803 18.6336 67.5467 15.7324C67.4132 12.8312 66.1628 10.0941 64.0573 8.09375C61.9518 6.09338 59.1543 4.98477 56.2501 4.99988C53.7225 4.99093 51.2674 5.84413 49.2901 7.41863C48.2602 5.90327 46.8752 4.66285 45.256 3.80553C43.6367 2.9482 41.8323 2.5 40.0001 2.5C38.1679 2.5 36.3635 2.9482 34.7442 3.80553C33.1249 4.66285 31.74 5.90327 30.7101 7.41863C28.7328 5.84413 26.2777 4.99093 23.7501 4.99988C20.8558 4.99961 18.0727 6.11484 15.9795 8.11369C13.8864 10.1125 12.6441 12.8412 12.5109 15.7325C12.3778 18.6237 13.3641 21.455 15.2648 23.6377C17.1655 25.8205 19.8343 27.1867 22.7163 27.4524C22.7163 27.4524 26.0501 43.9998 26.2751 45.2499C26.5 46.5 29 46 28.7251 44.7599C28.4501 43.5198 28.0251 41.2499 28.0251 41.2499H51.9751C51.9751 41.2499 51.5501 43.4998 51.2751 44.7499C51 46 53.5 46.5 53.7251 45.2499ZM47.6913 38.7499C47.6913 38.7499 48.7376 32.8548 48.7376 31.4274C48.7376 30 46.5 30 46.2626 31.0724C46.0251 32.1448 45.1663 38.7499 45.1663 38.7499H41.2501C41.2501 38.7499 41.2501 26.4229 41.2501 24.9999C41.2501 23.5769 38.7501 23.7008 38.7501 24.9999C38.7501 26.299 38.7501 38.7499 38.7501 38.7499H34.8338C34.8338 38.7499 33.9751 32.6448 33.7376 31.0724C33.5 29.5 31 30 31.2626 31.4274C31.5251 32.8548 32.3088 38.7499 32.3088 38.7499H27.5251L24.9751 25.9999C24.9174 25.7175 24.764 25.4638 24.5408 25.2816C24.3176 25.0993 24.0382 24.9998 23.7501 24.9999C21.4294 24.9999 19.2038 24.078 17.5629 22.4371C15.9219 20.7961 15.0001 18.5705 15.0001 16.2499C15.0001 13.9292 15.9219 11.7036 17.5629 10.0627C19.2038 8.42175 21.4294 7.49988 23.7501 7.49988C24.9413 7.49683 26.1204 7.73946 27.2136 8.21263C28.3068 8.68579 29.2907 9.37932 30.1038 10.2499C30.2428 10.3968 30.4153 10.5078 30.6065 10.5734C30.7978 10.639 31.0021 10.6572 31.202 10.6265C31.4019 10.5958 31.5913 10.517 31.754 10.397C31.9168 10.277 32.0479 10.1193 32.1363 9.93738C32.8504 8.45854 33.967 7.21102 35.358 6.33804C36.7489 5.46505 38.3579 5.00198 40.0001 5.00198C41.6423 5.00198 43.2512 5.46505 44.6422 6.33804C46.0331 7.21102 47.1497 8.45854 47.8638 9.93738C47.9522 10.1193 48.0834 10.277 48.2461 10.397C48.4089 10.517 48.5983 10.5958 48.7981 10.6265C48.998 10.6572 49.2023 10.639 49.3936 10.5734C49.5849 10.5078 49.7574 10.3968 49.8963 10.2499C50.7094 9.37932 51.6933 8.68579 52.7866 8.21263C53.8798 7.73946 55.0588 7.49683 56.2501 7.49988C58.5707 7.49988 60.7963 8.42175 62.4373 10.0627C64.0782 11.7036 65.0001 13.9292 65.0001 16.2499C65.0001 18.5705 64.0782 20.7961 62.4373 22.4371C60.7963 24.078 58.5707 24.9999 56.2501 24.9999C55.9619 24.9998 55.6826 25.0993 55.4593 25.2816C55.2361 25.4638 55.0827 25.7175 55.0251 25.9999L52.4751 38.7499H47.6913Z" fill="#151618"/>
</svg>
