<!DOCTYPE svg PUBLIC "-//W3C//DTD SVG 1.1//EN" "http://www.w3.org/Graphics/SVG/1.1/DTD/svg11.dtd">
<!-- Uploaded to: SVG Repo, www.svgrepo.com, Transformed by: SVG Repo Mixer Tools -->
<svg fill="#ff2e2e" width="800px" height="800px" viewBox="0 0 24 24" id="cross-circle" data-name="Flat Color" xmlns="http://www.w3.org/2000/svg" class="icon flat-color" stroke="#ff2e2e" stroke-width="0.768">
<g id="SVGRepo_bgCarrier" stroke-width="0"/>
<g id="SVGRepo_tracerCarrier" stroke-linecap="round" stroke-linejoin="round"/>
<g id="SVGRepo_iconCarrier">
<circle id="primary" cx="12" cy="12" r="10" style="fill: #ff2e2e;"/>
<path id="secondary" d="M13.41,12l2.3-2.29a1,1,0,0,0-1.42-1.42L12,10.59,9.71,8.29A1,1,0,0,0,8.29,9.71L10.59,12l-2.3,2.29a1,1,0,0,0,0,1.42,1,1,0,0,0,1.42,0L12,13.41l2.29,2.3a1,1,0,0,0,1.42,0,1,1,0,0,0,0-1.42Z" style="fill: #ffffff;"/>
</g>
</svg>