<svg width="120" height="120" viewBox="0 0 120 120" fill="none" xmlns="http://www.w3.org/2000/svg">
<path d="M104.092 95.8427C103.386 95.8427 102.677 95.8228 101.973 95.88C97.8911 89.4077 90.5358 85.2845 82.8966 85.2845C80.7817 85.2845 78.7874 85.8069 77.0315 86.7251C74.9881 82.7327 70.8157 80.0942 66.2183 80.0942C65.5825 80.0942 64.9511 80.1263 64.3254 80.1861C65.2656 78.396 65.9783 76.5074 66.4525 74.5486L72.1895 76.0858C76.02 77.1119 80.046 74.6053 80.8199 70.7179C81.5258 67.1721 79.2834 63.572 75.7932 62.6367L65.5722 59.8979C64.8278 57.9156 63.7312 56.1977 62.7143 54.3579C62.7143 54.3579 62.8924 53.5433 63.0523 52.9468L77.3618 56.781C81.0275 57.7642 84.9093 55.5178 85.8883 51.8584C86.8693 48.191 84.6255 44.3123 80.9656 43.3319L66.6559 39.4977L68.225 33.6422L82.5347 37.4765C86.2007 38.4585 90.082 36.2142 91.0612 32.5538C92.0423 28.8865 89.7985 25.0077 86.1386 24.0273L71.8286 20.1929L72.8045 16.5506C75.3125 7.18997 84.9679 1.61486 94.3295 4.12329C103.577 6.60148 109.238 16.3868 106.757 25.648L89.8687 86.4332C91.1777 86.916 90.4999 86.6547 91.4999 87.049C92.4999 87.5 91.9999 87.2668 93.1639 87.83L110.153 26.558C113.133 15.4371 106.337 3.70119 95.2395 0.72778C89.7982 -0.730449 84.1146 0.0181177 79.2355 2.8345C74.357 5.65136 70.867 10.1992 69.409 15.6408L59.9118 51.0855C55.3913 46.5298 49.1299 43.7041 42.2206 43.7041H32.6951C31.7241 43.7041 29.9999 43.7041 29.9999 43.7041C29.9999 47 29.0289 47.2196 29.9999 47.2196H42.2206C48.3966 47.2196 54.3671 49.9633 58.4099 54.6291C62.6956 59.5752 64.1093 65.7716 63.3534 72.1632C62.8139 75.4469 61.5134 78.5371 59.5194 81.2613C57.7207 81.9084 56.0231 82.815 54.4791 83.9563V82.3094C59.9774 77.2131 61.6571 68.7715 58.7943 61.8724C56.0864 55.3467 49.5427 50.9612 42.4758 50.9612H25.7408C15.5937 50.9612 8.022 59.4779 8.0827 69.3628C8.0827 74.2967 10.1334 78.9685 13.7373 82.3094V108.072C13.7373 110.836 15.9856 113.084 18.7492 113.084H27.7166C28.1937 114.391 29.1471 115.462 30.0576 116.485H12.0672C11.1935 116.485 10.4826 115.774 10.4826 114.9V84.0909C10.4826 83.6582 10.323 83.2408 10.0345 82.9183C6.51549 78.9877 4.57751 73.9163 4.57751 68.6379C4.57751 56.8274 14.7655 47.2196 29.9999 47.2196C30.9709 47.2196 31.7577 46.4328 31.7577 45.4618C31.7577 44.4908 30.9709 43.7041 29.9999 43.7041C12.0702 42.5386 1.06201 54.8892 1.06201 68.6379C1.06201 74.5547 3.15444 80.2489 6.96712 84.7487V114.9C6.96712 117.712 9.25501 120 12.0672 120L71.692 119.981C70.9999 119.981 70.1948 119.213 70.1948 118.242C70.1948 117.271 70.1948 117.226 70.1948 116.485L49.0774 116.484V102.309C49.0774 92.7559 56.2266 83.6095 66.2188 83.6095C69.6692 83.6095 72.7832 85.6998 74.132 88.8063C71.7091 91.1207 70.1948 94.3791 70.1948 97.9865V118.242C70.1948 119.213 70.9816 120 71.9526 120H110.735C116.046 120 118.938 115.532 118.938 110.689C118.938 102.503 112.278 95.8427 104.092 95.8427ZM87.3212 29.0283C88.8282 31.6382 86.3544 34.8581 83.4448 34.0805L69.135 30.2463L70.919 23.5884L85.2285 27.4226C86.118 27.6607 86.8609 28.2312 87.3212 29.0283ZM74.8833 66.032C79.1655 67.1794 77.3946 73.8382 73.0996 72.6898L67.0351 71.065C67.2655 68.6531 67.1551 66.2148 66.6894 63.8362L74.8833 66.032ZM65.7466 42.8929L80.0561 46.7269C84.3154 47.8683 82.5985 54.5414 78.2723 53.3848L63.9628 49.5506L65.7466 42.8929ZM18.7492 109.568C17.924 109.568 17.2528 108.897 17.2528 108.072V81.5177C17.2528 80.9998 17.0243 80.5083 16.6287 80.1743C6.68987 71.7882 12.5722 54.4765 25.7408 54.4765H42.4758C55.6439 54.4765 61.5272 71.7882 51.5877 80.1743C51.1921 80.5083 50.9636 80.9998 50.9636 81.5177V87.2958C49.5012 89.0665 48.3153 91.0319 47.4313 93.1219C43.0997 93.8077 38.8823 95.1731 34.9784 97.1727C30.3764 99.5244 27.402 104.397 27.4166 109.568H18.7492ZM32.9664 114.449C28.6264 110.11 31.7606 102.765 36.5794 100.302C39.6142 98.7479 42.8538 97.615 46.1917 96.922C45.7787 98.6778 45.5615 100.485 45.5615 102.309V116.485L37.878 116.484C36.0232 116.484 34.2788 115.761 32.9664 114.449ZM73.7101 97.9865C73.7101 92.9211 77.8312 88.8 82.8966 88.8C88.9772 88.8 94.8465 91.8997 98.3852 96.8406C94.8856 98.5042 92.4597 102.073 92.4597 106.199V116.485H73.7101V97.9865ZM115.422 111.797C115.422 114.381 113.32 116.484 110.735 116.484H95.9752V106.198C95.9752 102.907 98.3128 100.151 101.415 99.5028C108.437 98.1374 115.422 103.414 115.422 110.689V111.797Z" fill="#151618"/>
</svg>
