<svg width="80" height="80" viewBox="0 0 80 80" fill="none" xmlns="http://www.w3.org/2000/svg">
<path d="M75.467 5.36528C74.0586 4.53483 73.6622 6.23717 74.4995 7.5C76.4995 9 77.6572 13.4346 77.6555 15.3623C77.6532 18.2271 76.3956 20.9363 74.2051 22.7951C73.5011 23.3926 73.0968 24.2586 73.0961 25.1708L73.0725 54.1213C73.0703 56.8006 70.8863 58.9789 68.2082 58.9789H68.2044L64.5917 58.9604C64.3792 58.3592 64.1426 57.7642 63.8826 57.1768L68.201 57.1804H68.2033C69.8924 57.1802 71.2676 55.8077 71.269 54.1196L71.2926 25.1692C71.2937 23.7297 71.9293 22.3651 73.0364 21.4254C74.8238 19.9083 75.85 17.698 75.852 15.3608C75.8538 13.2354 75.0248 11.2349 73.5179 9.72754C72.0115 8.22048 70.0105 7.38968 67.8836 7.38796L42.0908 7.36687C42.0883 7.36687 42.0866 7.36687 42.0843 7.36687C37.6901 7.36687 34.113 10.9365 34.1094 15.3267C34.1074 17.6638 35.1301 19.8758 36.9153 21.3959C38.0208 22.3371 38.6541 23.7028 38.653 25.1426L38.6392 41.9069L36.8356 41.9053L36.8493 25.1411C36.8501 24.2289 36.4473 23.3625 35.7442 22.7637C33.5568 20.901 32.3036 18.1899 32.306 15.3251C32.3103 9.94363 36.6962 5.5684 42.0846 5.5684H42.0925L67.8853 5.58949C69.9995 5.5 73.2317 6.9253 74.4995 7.5C75.8797 8.12485 76.8474 5.99076 75.467 5.36528C73.9995 4.5 70.4995 3.2457 67.8872 3.2457L42.0944 3.22461C42.0908 3.22461 42.0882 3.22461 42.0846 3.22461C35.4052 3.22461 29.9676 8.65049 29.9622 15.3236C29.9592 18.8768 31.5128 22.2392 34.2246 24.5483C34.4034 24.7006 34.5057 24.9161 34.5055 25.1394L34.4918 41.9036C31.3625 41.9011 28.2332 41.8986 25.104 41.8961C27.6239 38.3594 27.3742 33.5853 27.3606 33.3603C27.3254 32.7768 26.8657 32.3086 26.2831 32.2625C26.1602 32.2528 24.6846 32.1479 22.7866 32.4478C23.2411 32.1445 23.6779 31.7989 24.0843 31.4015C27.6996 27.8668 27.3851 21.9073 27.3699 21.6554C27.3348 21.072 26.8751 20.6037 26.2924 20.5576C26.1373 20.5455 23.8239 20.3808 21.2253 21.074C21.5147 20.8668 21.7939 20.6369 22.0572 20.3794C24.9346 17.5663 24.6858 12.8477 24.6738 12.6482C24.6387 12.0648 24.179 11.5965 23.5963 11.5504C23.4555 11.5391 21.0644 11.3691 18.6584 12.2551C18.7556 11.7974 18.8139 11.3226 18.8192 10.834C18.8621 6.81233 15.3458 3.6518 15.1961 3.5193C14.7591 3.13211 14.1035 3.12601 13.6591 3.50477C13.5067 3.63462 9.92574 6.73248 9.88277 10.7526C9.8773 11.2648 9.93011 11.7627 10.0257 12.2424C7.62648 11.3591 5.24503 11.5244 5.1044 11.5354C4.52174 11.5804 4.06126 12.048 4.02516 12.6315C4.01282 12.831 3.75641 17.5491 6.62912 20.3669C6.89193 20.6248 7.17084 20.8551 7.45991 21.0627C4.86237 20.3652 2.54858 20.5263 2.39357 20.538C1.81091 20.583 1.35043 21.0507 1.31434 21.6342C1.29871 21.886 0.974642 27.845 4.58424 31.3856C4.99002 31.7835 5.42628 32.13 5.88035 32.434C3.98266 32.1311 2.5067 32.2336 2.38404 32.2431C1.80137 32.2881 1.3409 32.7558 1.3048 33.3392C1.28918 33.5911 0.96511 39.5499 4.5747 43.0905C4.95456 43.4631 5.36113 43.7906 5.78395 44.0806C3.92563 43.7938 2.4917 43.8945 2.37467 43.9036C1.792 43.9486 1.33152 44.4163 1.29543 44.9997C1.28168 45.2225 1.00152 50.3393 3.8125 53.9099C0.955423 58.4553 -0.380382 63.7104 0.0938449 68.8601C0.500102 73.2727 4.28845 76.7322 8.71743 76.7356L13.621 76.7423C15.0944 76.7423 15.0974 74.4005 13.6242 74.3985L8.71993 74.3918C5.488 74.3891 2.7242 71.865 2.42764 68.6453C1.87669 62.6627 4.0511 56.5037 8.39305 51.7472C10.7586 49.156 13.5897 47.1669 16.6423 45.8885L16.6344 55.2844C16.6307 59.7698 23.6427 59.8475 23.6464 55.2901L23.6555 44.2672C25.5963 44.1669 27.5517 44.242 29.494 44.2436L29.485 55.2951C29.4814 59.7826 36.4932 59.8575 36.497 55.3005L36.506 44.2492C38.4478 44.2508 40.4046 44.1791 42.3446 44.2822L42.3355 55.3054C42.3318 59.7909 49.3442 59.8684 49.3475 55.311L49.3552 45.915C52.4059 47.1985 55.2339 49.1923 57.5952 51.7875C61.929 56.5504 64.0931 62.7132 63.5325 68.695C63.2309 71.9127 60.4657 74.4315 57.2358 74.4315H57.2308L11.4022 74.4034C9.9287 74.4034 9.92714 76.7461 11.4003 76.7472L57.2289 76.7753H57.2356C61.6621 76.7753 65.4525 73.3232 65.8658 68.9137C66.1041 66.3721 65.9 63.8043 65.2912 61.308L68.1979 61.3228H68.2036C72.1782 61.3228 75.4134 58.0943 75.4167 54.1233L75.4403 25.1728C75.4405 24.9494 75.5433 24.7342 75.7222 24.5823C78.4377 22.2778 79.9968 18.9179 79.9998 15.3644C80.0013 12.9735 78.0105 6.86497 75.467 5.36528ZM22.4361 41.4303C22.2072 41.6542 21.9541 41.8664 21.6838 42.0609C21.6638 42.0753 21.6456 42.0911 21.6269 42.1064C19.5375 42.3942 17.4826 42.9733 15.516 43.8197C15.606 42.149 16.0571 39.009 18.0881 37.0235C20.13 35.0272 23.3421 34.6455 25.0108 34.5905C24.926 36.2499 24.4844 39.4277 22.4361 41.4303ZM16.4493 35.3475C16.0921 35.6967 15.7747 36.0702 15.4902 36.4588L15.493 34.507C16.0962 34.4917 16.8774 34.4392 17.7482 34.3016C17.2934 34.605 16.8559 34.95 16.4493 35.3475ZM22.4456 29.7254C20.4037 31.7217 17.1916 32.1034 15.5229 32.1582C15.6076 30.499 16.0491 27.3211 18.0974 25.3187C20.1394 23.3225 23.3514 22.9407 25.0202 22.8857C24.9355 24.545 24.494 27.7227 22.4456 29.7254ZM16.4588 23.6426C16.1047 23.9889 15.7894 24.3587 15.5068 24.7439L15.5094 22.8428C16.146 22.8137 16.9716 22.731 17.8609 22.527C17.3688 22.8464 16.8963 23.215 16.4588 23.6426ZM20.4186 18.7033C19.0173 20.0735 16.8524 20.4169 15.5488 20.4926C15.6502 19.1952 16.0371 17.0505 17.4352 15.6834C18.8353 14.3146 20.9975 13.9704 22.3016 13.8945C22.1967 15.1942 21.8069 17.3461 20.4186 18.7033ZM14.4028 6.07435C15.2497 7.06296 16.4963 8.85361 16.4755 10.8088C16.4546 12.7649 15.1693 14.535 14.3013 15.5092C13.4549 14.5162 12.2056 12.7182 12.2262 10.7774C12.2472 8.81955 13.5349 7.04811 14.4028 6.07435ZM6.39192 13.8848C7.69898 13.966 9.86995 14.3164 11.2586 15.6784C12.6536 17.0467 13.0372 19.19 13.1369 20.4869C11.8298 20.4057 9.65886 20.0554 8.27024 18.6933C6.87521 17.325 6.49161 15.1817 6.39192 13.8848ZM13.1658 22.8406L13.1631 24.729C12.8834 24.3481 12.5716 23.982 12.222 23.639C11.7853 23.2107 11.3136 22.8415 10.822 22.5214C11.7075 22.726 12.5302 22.8101 13.1658 22.8406ZM3.66469 22.8684C5.33503 22.9265 8.54368 23.3143 10.5806 25.3125C12.6148 27.308 13.0556 30.4937 13.1411 32.1562C11.4708 32.0981 8.26211 31.7103 6.2252 29.7121C4.19095 27.7168 3.75016 24.5308 3.66469 22.8684ZM13.1492 34.5044L13.1466 36.4239C12.8688 36.0466 12.5591 35.6839 12.2125 35.3441C11.8064 34.9458 11.3694 34.6 10.9151 34.2958C11.7759 34.4334 12.5489 34.4877 13.1492 34.5044ZM3.65516 34.5734C5.3255 34.6316 8.53415 35.0194 10.5712 37.0175C12.6055 39.0129 13.0463 42.1986 13.1317 43.8611C11.4614 43.803 8.25274 43.4152 6.21567 41.417C4.18142 39.4217 3.74063 36.236 3.65516 34.5734ZM11.4003 46.0724C11.3444 46.1101 11.2884 46.1476 11.2328 46.1857C11.1531 46.1272 11.0728 46.0704 10.9917 46.0149C11.1308 46.0363 11.2665 46.0551 11.4003 46.0724ZM6.66162 50.167C6.15942 50.717 5.68535 51.2853 5.23659 51.8678C4.02157 49.9561 3.71469 47.5863 3.64531 46.231C4.98752 46.2751 7.32413 46.5363 9.25494 47.6859C8.3454 48.4462 7.47741 49.2732 6.66162 50.167ZM21.3022 55.288C21.3011 56.7526 18.9765 56.8252 18.9778 55.286L18.9862 45.0594C19.7529 44.8372 20.5287 44.6577 21.3109 44.525L21.3022 55.288ZM34.1527 55.2985C34.1516 56.7626 31.8272 56.8368 31.8283 55.2966L31.8374 44.2452L34.1618 44.247L34.1527 55.2985ZM47.0031 55.309C47.002 56.7735 44.6774 56.8462 44.6787 55.3069L44.6876 44.5442C45.4696 44.6783 46.2453 44.8589 47.0115 45.0824L47.0031 55.309ZM40.9828 41.9087L40.9966 25.1445C40.9983 23.0161 40.0645 20.9995 38.4347 19.6116C37.174 18.5382 36.4518 16.9772 36.4532 15.3287C36.4557 12.2301 38.9814 9.71082 42.0843 9.71082H42.089L67.8818 9.73191C69.3833 9.73316 70.7963 10.3202 71.8604 11.3846C72.9243 12.4488 73.5095 13.8603 73.5083 15.359C73.5068 17.0075 72.7822 18.5672 71.5196 19.6386C69.8876 21.0241 68.9507 23.0395 68.9488 25.1677L68.9252 54.118C68.9249 54.5144 68.6011 54.8369 68.2035 54.8369L62.6954 54.8322C58.6969 47.9166 49.9467 41.9087 40.9828 41.9087Z" fill="#151618"/>
</svg>
