<svg width="20" height="20" viewBox="0 0 20 20" fill="none" xmlns="http://www.w3.org/2000/svg">
<path d="M10.0003 0C5.96853 0 2.68848 3.33899 2.68848 7.44318C2.68848 9.73889 3.84957 12.5253 6.13962 15.7251C7.81548 18.0668 9.4669 19.7369 9.53639 19.8069C9.66412 19.9355 9.83217 20 10.0004 20C10.1638 20 10.3272 19.9391 10.454 19.8171C10.5236 19.75 12.1792 18.1475 13.8582 15.8382C16.1501 12.6858 17.3122 9.86131 17.3122 7.44314C17.3121 3.33899 14.032 0 10.0003 0ZM10.0003 10.6565C8.0292 10.6565 6.42564 9.05291 6.42564 7.08185C6.42564 5.11079 8.02923 3.50719 10.0003 3.50719C11.9714 3.50719 13.575 5.11079 13.575 7.08185C13.575 9.05291 11.9713 10.6565 10.0003 10.6565Z" fill="#4E4E4E"/>
</svg>
