<svg width="167" height="76" viewBox="0 0 167 76" fill="none" xmlns="http://www.w3.org/2000/svg">
<path d="M29.3894 27.5222H31.9197V45.2702H39.5106V47.8202H29.3894V27.5222ZM47.3925 27.5222C48.8939 27.5222 50.3614 27.9709 51.6098 28.8115C52.8581 29.6521 53.8311 30.8468 54.4056 32.2447C54.9801 33.6426 55.1304 35.1807 54.8375 36.6646C54.5447 38.1486 53.8218 39.5117 52.76 40.5815C51.6985 41.6515 50.3459 42.38 48.8734 42.6752C47.401 42.9703 45.8747 42.8189 44.4876 42.2399C43.1005 41.6608 41.915 40.6803 41.0809 39.4223C40.2468 38.1642 39.8016 36.6852 39.8016 35.1722C39.8016 34.1676 39.998 33.1727 40.3794 32.2447C40.7608 31.3165 41.32 30.4732 42.025 29.7629C42.7298 29.0524 43.5666 28.4889 44.4876 28.1045C45.4085 27.7201 46.3957 27.5222 47.3925 27.5222ZM47.3925 40.2722C48.3934 40.2722 49.3718 39.9731 50.2041 39.4127C51.0363 38.8522 51.6849 38.0557 52.0679 37.1238C52.451 36.1919 52.5512 35.1666 52.3558 34.1772C52.1606 33.1879 51.6786 32.2792 50.9709 31.566C50.2631 30.8527 49.3615 30.367 48.3798 30.1702C47.3981 29.9734 46.3806 30.0744 45.4559 30.4604C44.5312 30.8464 43.7408 31.5001 43.1847 32.3388C42.6287 33.1775 42.3319 34.1635 42.3319 35.1722C42.3386 36.5204 42.8747 37.8111 43.823 38.762C44.7714 39.7129 46.0547 40.2467 47.3925 40.2467V40.2722ZM42.3319 45.2957H52.4531V47.8457H42.3319V45.2957ZM74.7198 47.8457H72.1895V46.0224C70.5577 47.1735 68.6147 47.7921 66.6228 47.7947C64.9243 47.8062 63.2503 47.3867 61.755 46.5749C60.2596 45.763 58.991 44.585 58.0662 43.1494C57.1413 41.7137 56.5897 40.0665 56.4624 38.3596C56.335 36.6527 56.636 34.9409 57.3375 33.3821C58.039 31.8232 59.1186 30.4672 60.4766 29.4393C61.8347 28.4113 63.4277 27.7442 65.1087 27.4996C66.7898 27.255 68.505 27.4407 70.096 28.0396C71.6872 28.6385 73.1033 29.6312 74.2137 30.9264L72.3539 32.5967C71.5093 31.645 70.4419 30.9216 69.2488 30.4923C68.0557 30.0629 66.775 29.9413 65.5234 30.1385C64.2717 30.3357 63.089 30.8456 62.0828 31.6214C61.0768 32.3974 60.2793 33.4146 59.7634 34.5807C59.2474 35.7467 59.0291 37.0243 59.1286 38.2971C59.228 39.5699 59.6418 40.7974 60.3326 41.8676C61.0234 42.9378 61.9688 43.8169 63.083 44.4246C64.1971 45.0323 65.4446 45.3492 66.7114 45.3467C67.7627 45.3489 68.8022 45.1222 69.7586 44.682C70.7149 44.2419 71.5658 43.5988 72.2527 42.7967H65.4209V40.2467H74.7451L74.7198 47.8457ZM84.0313 27.5732C85.5327 27.5732 87.0002 28.0219 88.2486 28.8625C89.4969 29.7031 90.4699 30.8978 91.0444 32.2957C91.6189 33.6936 91.7692 35.2317 91.4763 36.7156C91.1835 38.1996 90.4605 39.5627 89.3988 40.6325C88.3372 41.7025 86.9847 42.431 85.5122 42.7262C84.0398 43.0213 82.5135 42.8699 81.1264 42.2909C79.7393 41.7118 78.5538 40.7313 77.7197 39.4733C76.8856 38.2152 76.4404 36.7362 76.4404 35.2232C76.4337 34.2121 76.626 33.2098 77.006 32.2741C77.3861 31.3384 77.9464 30.4878 78.6547 29.7718C79.3629 29.0556 80.205 28.4881 81.1322 28.1019C82.0594 27.7159 83.0533 27.5188 84.0566 27.5222L84.0313 27.5732ZM84.0313 40.3232C85.0322 40.3232 86.0106 40.0241 86.8428 39.4637C87.6751 38.9032 88.3237 38.1067 88.7067 37.1748C89.0898 36.2429 89.19 35.2176 88.9946 34.2282C88.7994 33.2389 88.3174 32.3302 87.6096 31.617C86.9019 30.9037 86.0003 30.418 85.0186 30.2212C84.0369 30.0244 83.0194 30.1254 82.0947 30.5114C81.17 30.8974 80.3796 31.5511 79.8235 32.3898C79.2675 33.2285 78.9707 34.2145 78.9707 35.2232C78.9907 36.5669 79.5361 37.8484 80.4885 38.7891C81.4408 39.7297 82.7231 40.2536 84.0566 40.2467L84.0313 40.3232ZM78.9707 45.3467H89.0919V47.8967H78.9707V45.3467ZM94.317 27.5222H96.8473V47.7947H94.317V27.5222ZM100.352 27.5222H102.882C103.012 27.5083 103.144 27.5083 103.274 27.5222C104.334 27.4063 105.406 27.5167 106.421 27.846C107.435 28.1755 108.37 28.7165 109.163 29.4339C109.956 30.1514 110.591 31.0292 111.025 32.0102C111.459 32.9912 111.684 34.0534 111.684 35.1276C111.684 36.2018 111.459 37.264 111.025 38.2449C110.591 39.2259 109.956 40.1038 109.163 40.8212C108.37 41.5387 107.435 42.0796 106.421 42.4091C105.406 42.7384 104.334 42.8488 103.274 42.7329H102.882V47.8329H100.352V27.5222ZM102.882 30.0722V40.1574H103.274C103.989 40.2533 104.716 40.1943 105.406 39.984C106.096 39.7739 106.734 39.4176 107.276 38.9389C107.819 38.4603 108.253 37.8703 108.551 37.2086C108.849 36.5469 109.003 35.8287 109.003 35.1021C109.003 34.3754 108.849 33.6572 108.551 32.9955C108.253 32.3338 107.819 31.7438 107.276 31.2652C106.734 30.7864 106.096 30.4302 105.406 30.22C104.716 30.0098 103.989 29.9508 103.274 30.0467C103.136 30.0611 103.001 30.0911 102.869 30.1359L102.882 30.0722ZM121.113 28.9884L119.24 30.4802C118.917 30.14 118.505 29.8998 118.051 29.7879C117.597 29.6759 117.121 29.6968 116.679 29.8482C116.236 29.9994 115.846 30.2748 115.553 30.642C115.261 31.0092 115.078 31.4529 115.028 31.9209V32.1249C115.028 33.2469 115.799 33.9992 117.305 34.1012C123.099 34.4582 125.756 37.1994 125.756 40.8204V41.0499C125.606 42.483 125.051 43.8427 124.157 44.9673C123.263 46.0918 122.067 46.9337 120.712 47.3931C119.356 47.8523 117.899 47.9097 116.512 47.5582C115.125 47.2068 113.868 46.4613 112.889 45.4104L114.825 43.9059C115.276 44.3926 115.826 44.7746 116.438 45.0257C117.049 45.2766 117.708 45.3906 118.368 45.3594C119.586 45.4242 120.782 45.012 121.706 44.2089C122.631 43.4059 123.211 42.2741 123.327 41.0499V40.8714C123.327 37.4672 120.012 36.8424 117.14 36.5619C114.483 36.3069 112.573 34.6367 112.573 32.2269V32.1249C112.667 30.8703 113.235 29.6999 114.16 28.8553C115.085 28.0106 116.297 27.5562 117.545 27.5859C118.207 27.5663 118.865 27.6865 119.477 27.9391C120.089 28.1917 120.642 28.5709 121.1 29.0522L121.113 28.9884ZM135.662 45.2064C138.812 45.2064 141.305 41.7767 141.305 37.5564V27.3564H143.835V37.5564C143.835 43.1664 140.191 47.6927 135.713 47.6927C131.234 47.6927 127.59 43.1664 127.59 37.5564V27.3564H130.121V37.5564C130.02 41.8404 132.512 45.2702 135.649 45.2702L135.662 45.2064ZM163.255 47.7564H160.725V35.1339L154.892 42.7839L149.06 35.1339V47.7947H146.53V27.5222L154.88 38.6019L163.23 27.5222L163.255 47.7564Z" fill="#E7E7E7"/>
<path d="M17.2441 24.4751C17.2441 22.6355 16.519 20.8713 15.2283 19.5706C13.9376 18.2698 12.187 17.5391 10.3617 17.5391C8.53634 17.5391 6.78577 18.2698 5.49506 19.5706C4.20436 20.8713 3.47925 22.6355 3.47925 24.4751V45.4488L9.14713 49.5416V59.5121H11.5762V49.5416L17.2441 45.4488V24.4751ZM14.815 36.2051L11.5762 39.4691V36.4091L14.815 33.1451V36.2051ZM5.95894 33.1451L9.19773 36.4091V39.4691L5.95894 36.2051V33.1451ZM14.815 29.6771L10.3617 34.1651L5.90834 29.5751V26.5151L10.3617 31.0031L14.815 26.5151V29.6771ZM10.3617 19.9871C11.3411 19.9914 12.2921 20.3192 13.069 20.9203C13.8459 21.5213 14.4059 22.3624 14.6632 23.3148L10.3617 27.6371L6.06016 23.3148C6.30805 22.353 6.864 21.5004 7.64176 20.8895C8.41953 20.2786 9.3756 19.9434 10.3617 19.9361V19.9871ZM5.90834 44.2121V39.6221L9.14713 42.8861V46.5326L5.90834 44.2121ZM11.5762 46.5453V42.8861L14.815 39.6221V44.1993L11.5762 46.5453Z" fill="#E7E7E7"/>
</svg>
