<svg width="542" height="120" viewBox="0 0 542 120" fill="none" xmlns="http://www.w3.org/2000/svg">
<path d="M74.2547 38.3216C74.2547 38.3216 90.0327 21.0271 117.081 18.1144C117.081 18.1144 111.293 9.98293 117.812 2.70105C117.812 2.70105 127.132 -4.64151 133.651 4.88561C133.651 4.88561 138.524 10.347 132.432 17.8716C132.432 17.8716 164.78 23.9399 178.244 41.295C178.244 41.295 199.992 59.4997 198.164 99.7321H52.202C52.202 99.7321 51.3491 91.3579 51.9583 83.894L4.07591 84.076C4.07591 84.076 -0.0665836 82.2556 0.0552545 78.1292C0.0552545 78.1292 -0.858532 72.6071 4.74602 72.4857L78.2144 72.6678C78.2144 72.6678 83.3925 70.6653 83.1489 66.6602C83.1489 66.6602 83.3316 62.4731 76.4478 61.3809L28.6263 61.6236C28.6263 61.6236 23.9964 60.0458 23.9964 55.5554C23.9964 55.5554 23.3873 51.611 28.0171 49.9726L93.7488 50.276C93.7488 50.276 97.0993 49.7299 97.8304 44.2078C97.8304 44.2078 98.5614 39.5959 93.0787 38.807L74.2547 38.3216Z" fill="white"/>
<path d="M29.7228 106.832C29.7228 106.832 19.793 112.779 29.7228 120H219.242C219.242 120 230.878 113.689 219.242 106.832H29.7228Z" fill="white"/>
<path d="M276.409 78.1443H289.761V87.3387H264.459V44.1251H276.409V78.1443Z" fill="white"/>
<path d="M327.087 69.7467C327.087 70.6866 327.026 71.6265 326.904 72.5664H304.284C304.406 74.4461 304.914 75.8559 305.809 76.7958C306.744 77.6948 307.922 78.1443 309.345 78.1443C311.336 78.1443 312.759 77.2453 313.613 75.4473H326.355C325.827 77.8174 324.79 79.9423 323.246 81.822C321.742 83.6609 319.831 85.1116 317.515 86.174C315.198 87.2365 312.637 87.7677 309.833 87.7677C306.459 87.7677 303.451 87.0526 300.809 85.6224C298.208 84.1921 296.155 82.1489 294.652 79.4928C293.188 76.8366 292.457 73.7105 292.457 70.1145C292.457 66.5185 293.188 63.4128 294.652 60.7975C296.115 58.1414 298.147 56.0982 300.748 54.6679C303.39 53.2377 306.418 52.5226 309.833 52.5226C313.206 52.5226 316.194 53.2173 318.795 54.6067C321.396 55.996 323.428 57.9984 324.892 60.6137C326.355 63.1881 327.087 66.2324 327.087 69.7467ZM314.893 66.7432C314.893 65.2721 314.405 64.128 313.43 63.3107C312.454 62.4525 311.235 62.0235 309.772 62.0235C308.308 62.0235 307.109 62.4321 306.174 63.2494C305.24 64.0258 304.63 65.1904 304.345 66.7432H314.893Z" fill="white"/>
<path d="M352.157 77.1023V87.3387H346.975C338.236 87.3387 333.867 82.9867 333.867 74.2826V62.9429H329.66V52.9517H333.867V44.6154H345.878V52.9517H352.096V62.9429H345.878V74.4665C345.878 75.4064 346.081 76.0807 346.487 76.4893C346.934 76.8979 347.666 77.1023 348.682 77.1023H352.157Z" fill="white"/>
<path d="M360.565 44.1251H372.636L365.625 61.4105H357.638L360.565 44.1251Z" fill="white"/>
<path d="M393.286 87.7677C390.197 87.7677 387.433 87.2569 384.995 86.2353C382.597 85.1729 380.686 83.7426 379.264 81.9446C377.882 80.1058 377.11 78.0421 376.947 75.7537H388.531C388.694 76.8571 389.202 77.7152 390.055 78.3282C390.909 78.9411 391.965 79.2476 393.225 79.2476C394.201 79.2476 394.973 79.0433 395.542 78.6347C396.111 78.226 396.396 77.6948 396.396 77.041C396.396 76.1828 395.928 75.5494 394.994 75.1408C394.059 74.7321 392.514 74.2826 390.36 73.7923C387.921 73.3019 385.889 72.7502 384.263 72.1373C382.637 71.5243 381.215 70.5232 379.995 69.1338C378.817 67.7444 378.227 65.8647 378.227 63.4946C378.227 61.4514 378.776 59.6125 379.873 57.9779C380.971 56.3025 382.576 54.9744 384.69 53.9937C386.844 53.013 389.425 52.5226 392.433 52.5226C396.904 52.5226 400.42 53.6259 402.98 55.8326C405.541 58.0392 407.025 60.9406 407.431 64.5366H396.64C396.436 63.4333 395.949 62.5956 395.176 62.0235C394.445 61.4105 393.449 61.104 392.189 61.104C391.214 61.104 390.462 61.2879 389.933 61.6557C389.445 62.0235 389.202 62.5343 389.202 63.1881C389.202 64.0054 389.669 64.6388 390.604 65.0883C391.539 65.4969 393.043 65.926 395.115 66.3755C397.595 66.9067 399.647 67.4992 401.273 68.153C402.94 68.8069 404.383 69.8693 405.602 71.3404C406.862 72.7707 407.492 74.7321 407.492 77.2248C407.492 79.2272 406.903 81.0252 405.724 82.6189C404.586 84.2126 402.94 85.4794 400.786 86.4192C398.672 87.3182 396.172 87.7677 393.286 87.7677Z" fill="white"/>
<path d="M436.986 53.7485V60.7975H450.704V69.9306H436.986V77.7152H452.533V87.3387H425.037V44.1251H452.533V53.7485H436.986Z" fill="white"/>
<path d="M456.487 70.1145C456.487 66.5594 457.117 63.4537 458.377 60.7975C459.678 58.1414 461.425 56.0982 463.62 54.6679C465.856 53.2377 468.335 52.5226 471.058 52.5226C473.416 52.5226 475.448 52.9925 477.155 53.9324C478.862 54.8723 480.183 56.1391 481.118 57.7327V52.9517H493.068V87.3387H481.118V82.5576C480.183 84.1513 478.842 85.4181 477.094 86.3579C475.387 87.2978 473.375 87.7677 471.058 87.7677C468.335 87.7677 465.856 87.0526 463.62 85.6224C461.425 84.1921 459.678 82.1489 458.377 79.4928C457.117 76.7958 456.487 73.6697 456.487 70.1145ZM481.118 70.1145C481.118 67.9079 480.508 66.1711 479.289 64.9044C478.11 63.6376 476.647 63.0042 474.899 63.0042C473.111 63.0042 471.627 63.6376 470.449 64.9044C469.27 66.1303 468.681 67.867 468.681 70.1145C468.681 72.3212 469.27 74.0783 470.449 75.386C471.627 76.6528 473.111 77.2861 474.899 77.2861C476.647 77.2861 478.11 76.6528 479.289 75.386C480.508 74.1192 481.118 72.362 481.118 70.1145Z" fill="white"/>
<path d="M520.058 77.1023V87.3387H514.875C506.137 87.3387 501.767 82.9867 501.767 74.2826V62.9429H497.56V52.9517H501.767V44.6154H513.778V52.9517H519.997V62.9429H513.778V74.4665C513.778 75.4064 513.981 76.0807 514.388 76.4893C514.835 76.8979 515.566 77.1023 516.582 77.1023H520.058Z" fill="white"/>
<path d="M541.512 41.9184L540.11 71.1565H529.928L528.526 41.9184H541.512ZM535.05 87.829C532.936 87.829 531.229 87.2569 529.928 86.1128C528.668 84.9277 528.038 83.4362 528.038 81.6381C528.038 79.8401 528.668 78.3486 529.928 77.1636C531.229 75.9785 532.936 75.386 535.05 75.386C537.122 75.386 538.789 75.9785 540.049 77.1636C541.35 78.3486 542 79.8401 542 81.6381C542 83.3953 541.35 84.8664 540.049 86.0515C538.789 87.2365 537.122 87.829 535.05 87.829Z" fill="white"/>
</svg>
