<svg width="87" height="76" viewBox="0 0 87 76" fill="none" xmlns="http://www.w3.org/2000/svg">
<g clip-path="url(#clip0_360_5331)">
<path d="M78.8711 16.6638C79.6885 17.88 80.473 19.3804 80.0872 20.9882C78.7558 20.2295 77.6849 18.9907 76.8357 17.7678C75.9806 16.5366 75.0926 15.2274 74.7883 13.71C76.4678 14.1376 77.9712 15.3248 78.8711 16.6638Z" fill="#E7E7E7"/>
<path d="M6.68705 20.9861C6.30223 19.378 7.08837 17.8782 7.90721 16.6627C8.80859 15.3245 10.3125 14.1384 11.9922 13.7119C11.687 15.2291 10.7977 16.5378 9.94166 17.7681C9.09139 18.9905 8.01898 20.2285 6.68705 20.9861Z" fill="#E7E7E7"/>
<path d="M5.51502 24.0707C5.81541 22.7971 5.80875 21.4029 5.52278 20.2084C5.2713 19.1586 4.90538 17.6746 3.70103 17.1738C2.8256 18.5719 2.4737 20.4758 2.9839 21.9024C3.3528 22.9342 4.01623 24.2986 5.39212 24.5097C6.65464 24.7995 7.93129 24.129 8.93956 23.5754C10.0607 22.9599 11.1589 21.9807 11.8261 20.8165C10.6021 20.2014 9.20824 20.7006 8.1596 21.179C7.02922 21.6947 5.99082 22.8011 5.51502 24.0707Z" fill="#E7E7E7"/>
<path d="M30.0169 25.2944V18.9004H27.8244V21.23H24.5356V18.9004H22.343V25.2944H24.5356V22.9731H27.8244V25.2944H30.0169Z" fill="#E7E7E7"/>
<path d="M37.2872 18.9004H39.7088L36.2728 23.1848V25.2944H34.0721V23.1929L30.677 18.9004H33.1721L35.2011 21.458L37.2872 18.9004Z" fill="#E7E7E7"/>
<path fill-rule="evenodd" clip-rule="evenodd" d="M47.3448 19.4461C47.7784 19.7882 48.0238 20.3666 48.0238 21.2055C48.0238 21.8897 47.852 22.4028 47.5247 22.7613C47.0829 23.2663 46.3549 23.4943 45.4059 23.5025C45.1114 23.5106 42.5916 23.5025 42.5916 23.5025V25.2944H40.3909V18.9004H45.3732C46.2566 18.9004 46.9275 19.0796 47.3448 19.4461ZM45.7167 21.7024C45.7822 21.5883 45.815 21.4417 45.815 21.2381C45.815 21.0263 45.774 20.8471 45.7004 20.7494C45.5613 20.5458 45.2995 20.448 44.8741 20.448H42.5753V22.0119H44.8577C45.3159 22.0119 45.5859 21.906 45.7167 21.7024Z" fill="#E7E7E7"/>
<path d="M55.6651 23.706V25.2944H48.8997V18.9004H55.6084V20.4969H51.0594V21.3196H55.4772V22.8752H51.0594V23.706H55.6651Z" fill="#E7E7E7"/>
<path fill-rule="evenodd" clip-rule="evenodd" d="M63.8793 19.552C64.1746 19.8534 64.3128 20.2688 64.3128 20.8471C64.3128 21.344 64.1905 21.7675 63.9857 22.0526C63.757 22.3621 63.405 22.6228 62.9715 22.6879L64.9105 25.2944H62.4723L60.8774 23.0382H58.8897V25.2944H56.7051V18.9004H61.818C62.8323 18.9004 63.4955 19.1447 63.8793 19.552ZM62.1124 21.3847C62.17 21.287 62.1859 21.1566 62.1859 21.0508C62.1859 20.9286 62.17 20.7982 62.1124 20.7167C61.998 20.505 61.7693 20.448 61.4253 20.448H58.8976V21.6128H61.466C61.818 21.6128 62.0308 21.5476 62.1124 21.3847Z" fill="#E7E7E7"/>
<path d="M54.4936 33.3138C54.4936 31.8522 53.561 31.0841 51.3857 30.8494C51.0322 30.8067 49.9928 30.7 49.3391 30.6466C47.6567 30.4652 47.1532 30.3693 47.1532 29.9425C47.1532 29.5585 47.5496 29.3771 49.0605 29.3771C50.1321 29.3771 50.7322 29.5798 50.9678 29.8892C51.0858 30.0386 51.1286 30.1559 51.1393 30.2733H54.2254C54.1932 30.0172 54.0861 29.6544 53.9146 29.3345C53.3574 28.2675 52.018 27.4141 49.1355 27.4141C45.8887 27.4141 44.11 28.5556 44.11 30.0492C44.11 31.4895 45.1172 32.3323 47.8389 32.5777C48.1467 32.6039 48.8076 32.6661 49.3487 32.717L49.3821 32.7202L49.3882 32.7208L49.3906 32.721L49.682 32.7484C51.1071 32.8978 51.4929 32.9937 51.4929 33.4419C51.4929 33.8579 51.1179 34.0819 49.5427 34.0819C48.3212 34.0819 47.6032 33.9005 47.346 33.5912C47.2389 33.4632 47.1638 33.2711 47.1425 33.1431H44.0564C44.0885 33.3564 44.1421 33.6979 44.2599 33.9753C44.7851 35.1488 46.1567 36.045 49.3391 36.045C52.7574 36.045 54.4936 35.0848 54.4936 33.3138Z" fill="#E7E7E7"/>
<path fill-rule="evenodd" clip-rule="evenodd" d="M32.616 35.0634C32.9375 34.69 33.0982 34.1245 33.0982 33.5484C33.0982 33.0577 32.9696 32.5882 32.7017 32.2788C32.3803 31.8628 31.8123 31.5641 31.2123 31.4894C31.6195 31.4361 32.0052 31.2227 32.2302 30.9453C32.5088 30.6146 32.6374 30.1665 32.6374 29.6224C32.6374 29.0783 32.4767 28.5982 32.1124 28.2355C31.7052 27.8194 30.9658 27.542 29.8086 27.542H22.5435V35.9169H30.0121C31.2016 35.9169 32.1231 35.6608 32.616 35.0634ZM29.6585 30.1238C29.6585 30.3266 29.5942 30.4972 29.4871 30.6146C29.3371 30.7533 29.0584 30.8066 28.6941 30.8066H25.3509V29.441H28.6191C29.0263 29.441 29.3049 29.4944 29.4549 29.6331C29.5942 29.7504 29.6585 29.9211 29.6585 30.1238ZM29.98 33.7938C29.8086 33.9538 29.5085 34.0179 29.0048 34.0179H25.3509V32.6203H29.0371C29.5085 32.6203 29.7871 32.6843 29.9478 32.823C30.0765 32.951 30.13 33.111 30.13 33.3244C30.13 33.5271 30.0871 33.6871 29.98 33.7938Z" fill="#E7E7E7"/>
<path d="M43.1878 33.8365V35.9169H34.3262V27.542H43.1129V29.6331H37.155V30.7106H42.9414V32.7483H37.155V33.8365H43.1878Z" fill="#E7E7E7"/>
<path d="M64.9203 29.6438V27.542H54.8804V29.6438H58.4272V35.9169H61.3625V29.6438H64.9203Z" fill="#E7E7E7"/>
<path d="M64.6658 43.3279H64.1935L64.1597 42.8751C64.0155 43.1043 63.7102 43.3794 63.0659 43.3794C61.9771 43.3794 61.4709 42.726 61.4709 41.0578C61.4709 39.768 61.7931 38.7305 63.1226 38.7305C64.275 38.7305 64.626 39.4815 64.6429 40.2897H64.0672C64.0503 39.7623 63.8136 39.2751 63.1345 39.2751C62.3171 39.2751 62.0805 39.7623 62.0805 41.0751C62.0805 42.4452 62.3748 42.8751 63.1464 42.8751C63.6874 42.8751 64.0036 42.577 64.108 42.2216V41.3674H62.9446V40.8457H64.6598V42.1643C64.6598 42.5582 64.6638 42.9787 64.6648 43.19L64.6658 43.2906V43.3279Z" fill="#E7E7E7"/>
<path fill-rule="evenodd" clip-rule="evenodd" d="M22.6522 42.1864H24.2644L24.5983 43.3272H25.2086L23.8728 38.7871H23.1301L21.7021 43.3272H22.3067L22.6522 42.1864ZM24.1204 41.6762H22.8077C22.8077 41.6762 23.3776 39.8419 23.3892 39.8018C23.3949 39.7731 23.4871 39.3661 23.4871 39.3661L23.5508 39.6671L23.5792 39.8018C23.585 39.8304 24.1204 41.6762 24.1204 41.6762Z" fill="#E7E7E7"/>
<path d="M29.5787 38.7871H30.1315L29.0548 43.3272H28.3696C28.3696 43.3272 27.6038 39.796 27.6038 39.6469C27.5981 39.796 26.815 43.3272 26.815 43.3272H26.1299L25.0532 38.7871H25.675C25.675 38.7871 26.5098 42.3813 26.5098 42.5247C26.5098 42.3813 27.2757 38.7871 27.2757 38.7871H27.9608C27.9608 38.7871 28.7266 42.387 28.7266 42.5247C28.7266 42.387 29.5787 38.7871 29.5787 38.7871Z" fill="#E7E7E7"/>
<path fill-rule="evenodd" clip-rule="evenodd" d="M32.4957 42.1864H30.8836L30.5382 43.3272H29.9336L31.3615 38.7871H32.1043L33.4401 43.3272H32.8297L32.4957 42.1864ZM31.0391 41.6762H32.3518C32.3518 41.6762 31.8164 39.8304 31.8106 39.8018L31.7671 39.5951L31.7185 39.3661C31.7185 39.3661 31.6264 39.7731 31.6206 39.8018C31.6091 39.8419 31.0391 41.6762 31.0391 41.6762Z" fill="#E7E7E7"/>
<path fill-rule="evenodd" clip-rule="evenodd" d="M35.6588 38.7871C36.3612 38.7871 36.7412 39.1138 36.7412 40.0654C36.7412 40.8737 36.4361 41.1431 36.1194 41.2348L36.9946 43.3272H36.3612L35.5494 41.3495H34.444V43.3272H33.8682V38.7871H35.6588ZM35.5725 40.8335C36.0273 40.8335 36.1367 40.5985 36.1367 40.0826C36.1367 39.4979 35.964 39.3202 35.5436 39.3202H34.4497V40.8335H35.5725Z" fill="#E7E7E7"/>
<path fill-rule="evenodd" clip-rule="evenodd" d="M40.5746 40.9826C40.5746 42.0546 40.494 42.4902 40.2637 42.817C40.0334 43.1323 39.6707 43.3272 39.0833 43.3272H37.5173V38.7871H39.0431C39.6189 38.7871 40.0679 38.9591 40.2753 39.2686C40.5056 39.6011 40.5746 40.0138 40.5746 40.9826ZM38.9625 42.7883C39.3137 42.7883 39.6074 42.6966 39.757 42.4959C39.9183 42.2781 39.9643 41.8367 39.9643 40.9826C39.9643 40.2661 39.924 39.882 39.757 39.6354C39.6016 39.4234 39.3022 39.3316 38.951 39.3316H38.0988V42.7883H38.9625Z" fill="#E7E7E7"/>
<path d="M46.6493 38.7871H47.202L46.1253 43.3272H45.4401C45.4401 43.3272 44.6744 39.796 44.6744 39.6469C44.6686 39.796 43.8856 43.3272 43.8856 43.3272H43.2005L42.1238 38.7871H42.7456C42.7456 38.7871 43.5804 42.3813 43.5804 42.5247C43.5804 42.3813 44.3462 38.7871 44.3462 38.7871H45.0314C45.0314 38.7871 45.7971 42.387 45.7971 42.5247C45.7971 42.387 46.6493 38.7871 46.6493 38.7871Z" fill="#E7E7E7"/>
<path d="M48.2201 38.7871V43.3272H47.6213V38.7871H48.2201Z" fill="#E7E7E7"/>
<path d="M51.9683 38.7871V43.3272H51.3061L49.6076 39.8074V43.3272H49.0491V38.7871H49.7458L51.404 42.2552V38.7871H51.9683Z" fill="#E7E7E7"/>
<path d="M55.7017 38.7871V43.3272H55.0395L53.3412 39.8074V43.3272H52.7827V38.7871H53.4795L55.1379 42.2552V38.7871H55.7017Z" fill="#E7E7E7"/>
<path d="M57.1147 38.7871V43.3272H56.5161V38.7871H57.1147Z" fill="#E7E7E7"/>
<path d="M60.8635 38.7871V43.3272H60.2013L58.5029 39.8074V43.3272H57.9441V38.7871H58.6411L60.2997 42.2552V38.7871H60.8635Z" fill="#E7E7E7"/>
<path d="M29.1341 52.2757L28.4744 50.2539L27.8145 52.2757H25.6794L27.4067 53.5253L26.747 55.547L28.4744 54.2975L30.2017 55.547L29.5419 53.5253L31.2693 52.2757H29.1341Z" fill="#E7E7E7"/>
<path d="M36.7643 52.2757L36.091 50.2539L35.4177 52.2757H33.239L35.0017 53.5252L34.3284 55.5469L36.091 54.2975L37.8537 55.5469L37.1804 53.5252L38.943 52.2757H36.7643Z" fill="#E7E7E7"/>
<path d="M44.3214 52.2757L43.6481 50.2539L42.9749 52.2757H40.7961L42.5587 53.5252L41.8855 55.5469L43.6481 54.2975L45.4107 55.5469L44.7375 53.5252L46.5001 52.2757H44.3214Z" fill="#E7E7E7"/>
<path d="M51.878 52.2757L51.2048 50.2539L50.5315 52.2757H48.3528L50.1154 53.5252L49.4421 55.5469L51.2048 54.2975L52.9674 55.5469L52.2941 53.5252L54.0568 52.2757H51.878Z" fill="#E7E7E7"/>
<path d="M59.4812 52.2757L58.822 50.2539L58.1617 52.2757H56.0269L57.754 53.5252L57.0948 55.5469L58.822 54.2975L60.5492 55.5469L59.8889 53.5252L61.6171 52.2757H59.4812Z" fill="#E7E7E7"/>
<path d="M1.62747 27.5072C2.24835 28.4503 3.20909 29.6316 4.60993 29.5979C5.88379 29.6613 6.98434 28.7957 7.85101 28.0733C8.78441 27.2953 9.62692 26.1575 9.9826 24.9274C8.6797 24.55 7.43229 25.2491 6.50208 25.9086C5.5307 26.5973 4.78364 27.8578 4.62315 29.152C4.61112 27.8554 4.25862 26.5162 3.69035 25.4374C3.17081 24.4512 2.44682 23.1181 1.15516 22.8516C0.646251 24.3862 0.808627 26.2638 1.62747 27.5072Z" fill="#E7E7E7"/>
<path d="M5.02408 34.6775C3.72397 34.8944 2.45578 34.1013 1.63216 33.1685C0.57178 31.9674 -0.0591373 30.3562 0.0695316 28.7432C1.40514 28.7769 2.4167 29.9264 3.16435 30.7956C3.96957 31.7318 4.62932 32.9634 4.94582 34.234C4.80662 32.9678 5.23359 31.6005 6.02619 30.7556C6.79124 29.9401 7.86295 29.0513 9.19637 29.1939C9.16764 30.4778 8.52121 31.7011 7.8545 32.6172C7.23303 33.471 6.27567 34.527 5.02408 34.6775Z" fill="#E7E7E7"/>
<path d="M2.6226 38.9436C3.82 39.7198 5.27225 40.488 6.79847 39.9066C8.05056 39.4656 8.84664 38.2107 9.33625 37.059C9.85491 35.8386 10.2013 34.4314 9.9615 33.0957C8.58562 33.2173 7.4447 34.1974 6.83875 35.3938C6.20525 36.6446 6.08374 38.1333 6.57037 39.4447C5.85136 38.0956 4.79983 37.004 3.68596 35.9954C2.67342 35.0786 1.2149 34.1127 -0.25415 34.2944C0.0253613 36.1026 1.13366 37.9786 2.6226 38.9436Z" fill="#E7E7E7"/>
<path d="M9.88275 44.7944C11.0611 44.0931 11.5353 42.6174 11.7291 41.3529C11.938 39.9891 11.929 38.4851 11.3602 37.1914C9.99313 37.5716 9.05476 38.7966 8.74492 40.1383C8.41758 41.5559 8.69381 43.0668 9.49008 44.2738C8.4316 43.0647 7.02409 42.0664 5.67526 41.3663C4.37236 40.6902 2.77394 39.8746 1.20923 40.3671C1.96374 42.2005 3.57777 43.9075 5.36661 44.6135C6.75194 45.1602 8.43727 45.7008 9.88275 44.7944Z" fill="#E7E7E7"/>
<path d="M15.4688 45.2698C15.6417 46.5861 15.6368 48.2556 14.6104 49.2688C13.3277 50.576 11.3425 50.3237 9.81143 50.0361C7.75591 49.6497 5.44206 48.2539 4.2019 46.3954C5.7165 45.5651 7.56887 46.0962 9.06835 46.5262L9.15397 46.5506C10.8278 47.0301 12.6114 47.8023 14.1031 48.8574C12.9127 47.7865 12.0453 46.2145 12.0029 44.6301C11.9647 43.213 12.5825 41.697 13.9119 41.0215C14.8401 42.2343 15.2747 43.7915 15.4688 45.2698Z" fill="#E7E7E7"/>
<path d="M21.4261 52.9952C22.182 51.5626 21.433 49.8812 20.8362 48.6385C20.1306 47.1693 19.1666 45.672 17.7869 44.5967C16.4622 45.7334 16.5882 47.3599 16.982 48.7734C17.4504 50.4541 19.074 51.8868 20.7554 52.7033C18.8081 51.9803 16.6815 51.5464 14.6582 51.4183L14.4533 51.4051C12.8278 51.2997 10.7117 51.1625 9.4165 52.3468C11.3749 54.0043 14.1566 54.9607 16.6082 54.911C18.2512 54.8777 20.5054 54.6842 21.4261 52.9952Z" fill="#E7E7E7"/>
<path d="M81.2566 24.0748C80.7823 22.8043 79.7442 21.6965 78.6147 21.1798C77.5656 20.7007 76.1725 20.2006 74.9485 20.8146C75.6147 21.9792 76.7115 22.9592 77.8321 23.5756C78.8394 24.1298 80.1151 24.8012 81.378 24.5126C82.7541 24.3028 83.4194 22.9387 83.7893 21.9069C84.3013 20.481 83.9513 18.5767 83.0773 17.1777C81.8721 17.6778 81.5042 19.1614 81.2527 20.2111C80.9653 21.4059 80.9573 22.8006 81.2566 24.0748Z" fill="#E7E7E7"/>
<path d="M80.2673 25.9109C81.2378 26.5999 81.9826 27.8597 82.1427 29.153C82.1566 27.8571 82.5106 26.5192 83.0793 25.4415C83.5994 24.4556 84.3252 23.123 85.6169 22.8574C86.124 24.3925 85.96 26.2701 85.1396 27.5128C84.5191 28.4542 83.5586 29.633 82.1606 29.6014C80.8848 29.6662 79.7831 28.7986 78.916 28.0747C77.9833 27.2959 77.1421 26.1575 76.7881 24.9272C78.0907 24.5506 79.3376 25.2507 80.2673 25.9109Z" fill="#E7E7E7"/>
<path d="M81.8145 34.2419C81.9567 32.9746 81.5311 31.6045 80.7376 30.7579C79.9739 29.9418 78.903 29.0521 77.5696 29.1938C77.5964 30.4777 78.2418 31.7016 78.908 32.6182C79.5284 33.4721 80.484 34.5281 81.7349 34.6803C83.0355 34.8996 84.3053 34.1069 85.1306 33.1741C86.1916 31.9739 86.824 30.3632 86.6977 28.75C85.3613 28.7829 84.349 29.9315 83.6003 30.8001C82.7929 31.7368 82.1317 32.9699 81.8145 34.2419Z" fill="#E7E7E7"/>
<path d="M79.9212 35.3962C80.5536 36.6476 80.6739 38.1367 80.1857 39.4476C80.9056 38.0988 81.9586 37.0079 83.0732 36C84.0865 35.0838 85.5462 34.1193 87.0149 34.3019C86.7344 36.1101 85.6238 37.9852 84.1342 38.9491C82.937 39.7233 81.4863 40.4899 79.9619 39.9109C78.708 39.4706 77.9116 38.2132 77.4224 37.0595C76.9043 35.8387 76.5593 34.4313 76.8009 33.0957C78.1761 33.2184 79.3166 34.1994 79.9212 35.3962Z" fill="#E7E7E7"/>
<path d="M77.2633 44.2724C78.0588 43.0666 78.3362 41.5572 78.0111 40.1403C77.7028 38.7983 76.7651 37.5726 75.3979 37.1914C74.8281 38.4845 74.8182 39.9885 75.025 41.3525C75.2179 42.6145 75.6893 44.0873 76.8606 44.7911C78.3074 45.7047 79.9968 45.1644 81.3839 44.6179C83.1737 43.9131 84.7896 42.2073 85.5453 40.3744C83.9812 39.8808 82.3822 40.6952 81.0786 41.3704C79.7303 42.069 78.3223 43.0653 77.2633 44.2724Z" fill="#E7E7E7"/>
<path d="M71.2814 45.2659C71.1074 46.5819 71.1104 48.2513 72.1366 49.2654C73.4173 50.5735 75.403 50.3227 76.9343 50.0361C78.9906 49.6513 81.3055 48.2569 82.5474 46.3995C81.034 45.5682 79.1805 46.0978 77.681 46.5265L77.5945 46.5511C75.921 47.029 74.1372 47.7997 72.6447 48.8532C73.8359 47.7831 74.704 46.2125 74.7477 44.6287C74.7875 43.2117 74.171 41.6951 72.8425 41.0186C71.9128 42.2307 71.4773 43.7877 71.2814 45.2659Z" fill="#E7E7E7"/>
<path d="M70.1329 54.9068C68.4902 54.8723 66.236 54.6771 65.3172 52.9874L65.3043 52.9642C64.5705 51.5359 65.3162 49.8666 65.9108 48.6312C66.6178 47.1625 67.5833 45.6659 68.9635 44.5918C70.288 45.7294 70.1597 47.3558 69.7649 48.7689C69.2946 50.4493 67.6698 51.8811 65.9874 52.6961C67.9353 51.9746 70.0623 51.5423 72.0858 51.4156L72.2916 51.4025C73.9174 51.2983 76.0333 51.1629 77.327 52.3479C75.3671 54.0038 72.5849 54.9583 70.1329 54.9068Z" fill="#E7E7E7"/>
</g>
<defs>
<clipPath id="clip0_360_5331">
<rect width="87" height="76" fill="white"/>
</clipPath>
</defs>
</svg>
