<svg width="143" height="32" viewBox="0 0 143 32" fill="none" xmlns="http://www.w3.org/2000/svg">
<path d="M19.5912 10.1107C19.5912 10.1107 23.754 5.54774 30.8903 4.77925C30.8903 4.77925 29.3634 2.63387 31.0832 0.712638C31.0832 0.712638 33.5423 -1.22461 35.2621 1.28901C35.2621 1.28901 36.5479 2.72993 34.9407 4.71521C34.9407 4.71521 43.4753 6.31624 47.0274 10.8952C47.0274 10.8952 52.7653 15.6983 52.2832 26.3131H13.7729C13.7729 26.3131 13.5478 24.1037 13.7086 22.1344L1.07538 22.1824C1.07538 22.1824 -0.0175673 21.7021 0.0145782 20.6134C0.0145782 20.6134 -0.226513 19.1565 1.25218 19.1245L20.6359 19.1725C20.6359 19.1725 22.0021 18.6441 21.9378 17.5875C21.9378 17.5875 21.986 16.4828 20.1698 16.1946L7.5527 16.2586C7.5527 16.2586 6.33117 15.8424 6.33117 14.6576C6.33117 14.6576 6.17044 13.6169 7.39197 13.1846L24.7345 13.2647C24.7345 13.2647 25.6185 13.1206 25.8113 11.6637C25.8113 11.6637 26.0042 10.4469 24.5577 10.2388L19.5912 10.1107Z" fill="#D08C30"/>
<path d="M7.84212 28.1865C7.84212 28.1865 5.22226 29.7555 7.84212 31.6608H57.8444C57.8444 31.6608 60.9143 29.9957 57.8444 28.1865H7.84212Z" fill="#D08C30"/>
<path d="M72.9272 20.6173H76.45V23.0431H69.7744V11.6418H72.9272V20.6173Z" fill="#D08C30"/>
<path d="M86.2978 18.4017C86.2978 18.6497 86.2817 18.8977 86.2495 19.1457H80.2818C80.3139 19.6416 80.448 20.0136 80.6839 20.2615C80.9305 20.4987 81.2415 20.6173 81.6169 20.6173C82.1423 20.6173 82.5177 20.3801 82.7429 19.9057H86.1048C85.9654 20.5311 85.6919 21.0917 85.2844 21.5877C84.8876 22.0728 84.3836 22.4556 83.7723 22.7359C83.1611 23.0162 82.4855 23.1564 81.7455 23.1564C80.8555 23.1564 80.0619 22.9677 79.3649 22.5903C78.6785 22.213 78.137 21.6739 77.7402 20.9731C77.3542 20.2723 77.1611 19.4475 77.1611 18.4988C77.1611 17.55 77.3542 16.7306 77.7402 16.0406C78.1263 15.3398 78.6625 14.8007 79.3488 14.4234C80.0458 14.046 80.8448 13.8574 81.7455 13.8574C82.6356 13.8574 83.4238 14.0406 84.1101 14.4072C84.7965 14.7738 85.3327 15.3021 85.7187 15.9921C86.1048 16.6713 86.2978 17.4745 86.2978 18.4017ZM83.0807 17.6093C83.0807 17.2212 82.952 16.9193 82.6946 16.7037C82.4372 16.4772 82.1155 16.364 81.7295 16.364C81.3434 16.364 81.0271 16.4719 80.7804 16.6875C80.5338 16.8923 80.3729 17.1996 80.2978 17.6093H83.0807Z" fill="#D08C30"/>
<path d="M92.9124 20.3424V23.0431H91.5451C89.2395 23.0431 88.0867 21.8949 88.0867 19.5985V16.6066H86.9768V13.9706H88.0867V11.7711H91.2556V13.9706H92.8963V16.6066H91.2556V19.647C91.2556 19.895 91.3092 20.0729 91.4164 20.1807C91.5344 20.2885 91.7274 20.3424 91.9955 20.3424H92.9124Z" fill="#D08C30"/>
<path d="M95.1306 11.6418H98.3156L96.4657 16.2023H94.3585L95.1306 11.6418Z" fill="#D08C30"/>
<path d="M103.764 23.1564C102.949 23.1564 102.22 23.0216 101.576 22.752C100.943 22.4717 100.439 22.0944 100.064 21.62C99.6995 21.1348 99.4958 20.5904 99.4529 19.9866H102.509C102.552 20.2777 102.686 20.5041 102.911 20.6658C103.136 20.8276 103.415 20.9084 103.748 20.9084C104.005 20.9084 104.209 20.8545 104.359 20.7467C104.509 20.6389 104.584 20.4987 104.584 20.3262C104.584 20.0998 104.461 19.9327 104.214 19.8249C103.968 19.7171 103.56 19.5985 102.992 19.4691C102.348 19.3397 101.812 19.1942 101.383 19.0324C100.954 18.8707 100.579 18.6066 100.257 18.24C99.9462 17.8734 99.7907 17.3775 99.7907 16.7522C99.7907 16.2131 99.9354 15.7279 100.225 15.2967C100.515 14.8546 100.938 14.5042 101.496 14.2455C102.064 13.9867 102.745 13.8574 103.539 13.8574C104.718 13.8574 105.646 14.1485 106.321 14.7307C106.997 15.3129 107.388 16.0783 107.496 17.0271H104.649C104.595 16.736 104.466 16.515 104.262 16.364C104.069 16.2023 103.807 16.1215 103.474 16.1215C103.217 16.1215 103.019 16.17 102.879 16.267C102.75 16.364 102.686 16.4988 102.686 16.6713C102.686 16.8869 102.809 17.0541 103.056 17.1727C103.303 17.2805 103.699 17.3937 104.246 17.5123C104.901 17.6524 105.442 17.8088 105.871 17.9813C106.311 18.1538 106.691 18.4341 107.013 18.8222C107.346 19.1996 107.512 19.7171 107.512 20.3747C107.512 20.903 107.356 21.3774 107.045 21.7979C106.745 22.2184 106.311 22.5526 105.742 22.8006C105.185 23.0378 104.525 23.1564 103.764 23.1564Z" fill="#D08C30"/>
<path d="M115.293 14.1808V16.0406H118.913V18.4503H115.293V20.5041H119.395V23.0431H112.141V11.6418H119.395V14.1808H115.293Z" fill="#D08C30"/>
<path d="M120.439 18.4988C120.439 17.5608 120.605 16.7414 120.937 16.0406C121.28 15.3398 121.741 14.8007 122.321 14.4234C122.91 14.046 123.564 13.8574 124.283 13.8574C124.905 13.8574 125.441 13.9813 125.892 14.2293C126.342 14.4773 126.69 14.8115 126.937 15.232V13.9706H130.09V23.0431H126.937V21.7817C126.69 22.2022 126.337 22.5364 125.875 22.7844C125.425 23.0324 124.894 23.1564 124.283 23.1564C123.564 23.1564 122.91 22.9677 122.321 22.5903C121.741 22.213 121.28 21.6739 120.937 20.9731C120.605 20.2615 120.439 19.4368 120.439 18.4988ZM126.937 18.4988C126.937 17.9166 126.776 17.4584 126.455 17.1241C126.144 16.7899 125.758 16.6228 125.296 16.6228C124.825 16.6228 124.433 16.7899 124.122 17.1241C123.811 17.4476 123.656 17.9058 123.656 18.4988C123.656 19.081 123.811 19.5446 124.122 19.8896C124.433 20.2238 124.825 20.3909 125.296 20.3909C125.758 20.3909 126.144 20.2238 126.455 19.8896C126.776 19.5554 126.937 19.0917 126.937 18.4988Z" fill="#D08C30"/>
<path d="M137.211 20.3424V23.0431H135.844C133.538 23.0431 132.385 21.8949 132.385 19.5985V16.6066H131.275V13.9706H132.385V11.7711H135.554V13.9706H137.195V16.6066H135.554V19.647C135.554 19.895 135.608 20.0729 135.715 20.1807C135.833 20.2885 136.026 20.3424 136.294 20.3424H137.211Z" fill="#D08C30"/>
<path d="M142.871 11.0596L142.501 18.7737H139.815L139.445 11.0596H142.871ZM141.166 23.1725C140.609 23.1725 140.158 23.0216 139.815 22.7197C139.483 22.407 139.316 22.0135 139.316 21.5391C139.316 21.0648 139.483 20.6712 139.815 20.3586C140.158 20.0459 140.609 19.8896 141.166 19.8896C141.713 19.8896 142.153 20.0459 142.485 20.3586C142.828 20.6712 143 21.0648 143 21.5391C143 22.0027 142.828 22.3909 142.485 22.7035C142.153 23.0162 141.713 23.1725 141.166 23.1725Z" fill="#D08C30"/>
</svg>
