<svg width="118" height="76" viewBox="0 0 118 76" fill="none" xmlns="http://www.w3.org/2000/svg">
<path d="M3.05054 42.7256H6.39338V59.0676H3.05054V42.7256Z" fill="#E7E7E7"/>
<path d="M8.3323 53.468C8.33009 52.2942 8.67719 51.1461 9.32967 50.1691C9.98215 49.192 10.9107 48.4299 11.9978 47.9792C13.0848 47.5285 14.2815 47.4094 15.4365 47.6371C16.5915 47.8647 17.6528 48.4288 18.486 49.2581C19.3193 50.0873 19.8871 51.1443 20.1176 52.2954C20.3482 53.4465 20.231 54.6399 19.7809 55.7246C19.3309 56.8092 18.5682 57.7364 17.5894 58.3887C16.6107 59.0412 15.4599 59.3893 14.2826 59.3893C13.4996 59.3982 12.7228 59.2513 11.9975 58.9569C11.2723 58.6627 10.6133 58.2271 10.0591 57.6755C9.50496 57.1241 9.06677 56.4679 8.77024 55.7453C8.47372 55.0228 8.32483 54.2486 8.3323 53.468ZM16.8676 53.468C16.8545 52.9613 16.6918 52.4696 16.3999 52.0547C16.1079 51.6396 15.6998 51.3198 15.2264 51.1348C14.753 50.9499 14.2354 50.9084 13.7385 51.0152C13.2415 51.122 12.7872 51.3726 12.4322 51.7355C12.0774 52.0985 11.8378 52.5578 11.7433 53.0559C11.6488 53.5539 11.7038 54.0687 11.9012 54.5358C12.0988 55.0028 12.43 55.4015 12.8535 55.6819C13.2771 55.9622 13.7741 56.1119 14.2826 56.112C14.6303 56.1218 14.9764 56.0595 15.2989 55.9292C15.6214 55.7988 15.9134 55.6033 16.1563 55.3548C16.3992 55.1064 16.5879 54.8105 16.7102 54.4858C16.8327 54.1609 16.8863 53.8145 16.8676 53.468Z" fill="#E7E7E7"/>
<path d="M33.6708 47.8689V58.5118C33.6708 62.2779 30.718 63.8666 27.7318 63.8666C26.6817 63.9445 25.6303 63.7327 24.6928 63.2546C23.7553 62.7765 22.9679 62.0503 22.4167 61.1559L25.2915 59.5006C25.5196 59.9589 25.8806 60.3386 26.3276 60.5901C26.7745 60.8416 27.287 60.9536 27.7987 60.9114C28.1352 60.9674 28.4802 60.9455 28.8071 60.8474C29.1339 60.7494 29.4338 60.5779 29.6836 60.346C29.9333 60.1141 30.1263 59.8281 30.2478 59.5101C30.3692 59.1921 30.4157 58.8506 30.3837 58.5118V57.4786C29.9907 57.9607 29.4892 58.3436 28.9201 58.5965C28.351 58.8493 27.7301 58.9649 27.1078 58.934C25.5947 58.934 24.1436 58.3347 23.0736 57.268C22.0037 56.2013 21.4026 54.7545 21.4026 53.2459C21.4026 51.7373 22.0037 50.2906 23.0736 49.2239C24.1436 48.1572 25.5947 47.5579 27.1078 47.5579C27.7297 47.5295 28.3497 47.6463 28.9185 47.8989C29.4872 48.1516 29.989 48.5332 30.3837 49.0132V47.9022L33.6708 47.8689ZM30.3837 53.2459C30.406 52.7056 30.2656 52.1711 29.9807 51.7108C29.6957 51.2507 29.2793 50.886 28.7849 50.6638C28.2905 50.4414 27.7406 50.3716 27.2061 50.4634C26.6715 50.555 26.1767 50.8041 25.7853 51.1783C25.3938 51.5527 25.1236 52.0352 25.0094 52.5638C24.895 53.0923 24.942 53.643 25.1441 54.1448C25.3463 54.6467 25.6942 55.0767 26.1435 55.3798C26.5927 55.6829 27.1225 55.845 27.6648 55.8455C28.019 55.8705 28.3743 55.8213 28.708 55.7009C29.0418 55.5806 29.3466 55.392 29.6028 55.147C29.8588 54.9021 30.0607 54.6063 30.1952 54.2789C30.3298 53.9515 30.394 53.5996 30.3837 53.2459Z" fill="#E7E7E7"/>
<path d="M35.5987 53.468C35.5964 52.2942 35.9436 51.1461 36.596 50.1691C37.2485 49.192 38.1771 48.4299 39.2641 47.9792C40.3511 47.5285 41.5479 47.4094 42.7029 47.6371C43.8578 47.8647 44.9191 48.4288 45.7524 49.2581C46.5856 50.0873 47.1535 51.1443 47.384 52.2954C47.6145 53.4465 47.4973 54.6399 47.0473 55.7246C46.5972 56.8092 45.8346 57.7364 44.8559 58.3887C43.8771 59.0412 42.7262 59.3893 41.5489 59.3893C40.766 59.3982 39.9891 59.2513 39.2639 58.9569C38.5386 58.6627 37.8796 58.2271 37.3255 57.6755C36.7713 57.1241 36.3331 56.4679 36.0366 55.7453C35.74 55.0228 35.5911 54.2486 35.5987 53.468ZM44.1341 53.468C44.1209 52.9613 43.9581 52.4696 43.6662 52.0547C43.3743 51.6396 42.9661 51.3198 42.4927 51.1348C42.0194 50.9499 41.5018 50.9084 41.0048 51.0152C40.5078 51.122 40.0535 51.3726 39.6986 51.7355C39.3437 52.0985 39.1041 52.5578 39.0096 53.0559C38.9152 53.5539 38.9702 54.0687 39.1676 54.5358C39.3651 55.0028 39.6963 55.4015 40.1198 55.6819C40.5435 55.9622 41.0405 56.1119 41.5489 56.112C41.8949 56.1186 42.2385 56.0541 42.5584 55.9224C42.8782 55.7906 43.1674 55.5946 43.4079 55.3465C43.6484 55.0985 43.8349 54.8035 43.9561 54.4804C44.0772 54.1572 44.1302 53.8125 44.1118 53.468H44.1341Z" fill="#E7E7E7"/>
<path d="M49.0481 44.8696C49.0481 44.4697 49.167 44.0787 49.3898 43.7463C49.6127 43.4138 49.9294 43.1546 50.3 43.0016C50.6706 42.8485 51.0783 42.8085 51.4717 42.8865C51.8651 42.9645 52.2264 43.1571 52.5101 43.4398C52.7938 43.7226 52.9868 44.0829 53.065 44.4751C53.1434 44.8673 53.1032 45.2739 52.9498 45.6433C52.7962 46.0127 52.5363 46.3286 52.2028 46.5507C51.8692 46.7729 51.4772 46.8914 51.076 46.8914C50.5391 46.8886 50.025 46.6746 49.6453 46.296C49.2656 45.9176 49.051 45.405 49.0481 44.8696ZM49.3935 47.8691H52.7363V59.0674H49.3935V47.8691Z" fill="#E7E7E7"/>
<path d="M67.3109 53.4678C67.3514 54.2081 67.2447 54.949 66.9969 55.648C66.749 56.3469 66.3651 56.9901 65.8669 57.5404C65.3687 58.0908 64.7663 58.5375 64.0943 58.8548C63.4223 59.1721 62.694 59.3537 61.9513 59.3893C61.3278 59.419 60.7052 59.3122 60.1277 59.0761C59.5501 58.84 59.0315 58.4804 58.6084 58.0228V63.5775H55.2656V47.8687H58.6084V48.9241C59.0315 48.4664 59.5501 48.1069 60.1277 47.8708C60.7052 47.6347 61.3278 47.5278 61.9513 47.5576C62.693 47.5931 63.4204 47.7744 64.0916 48.091C64.7629 48.4077 65.3648 48.8534 65.8627 49.4026C66.3608 49.9517 66.745 50.5935 66.9935 51.2911C67.2422 51.9888 67.35 52.7285 67.3109 53.4678ZM63.9681 53.4678C63.9549 52.9464 63.7885 52.4403 63.4896 52.0122C63.1907 51.5842 62.7725 51.2528 62.2867 51.0594C61.8009 50.8658 61.2688 50.8187 60.7564 50.9237C60.2439 51.0287 59.7736 51.2813 59.4036 51.6501C59.0337 52.0189 58.7805 52.4877 58.6751 52.9987C58.5699 53.5096 58.6172 54.0401 58.8112 54.5244C59.0053 55.0088 59.3376 55.4258 59.767 55.7237C60.1964 56.0217 60.704 56.1876 61.227 56.2008C61.592 56.224 61.9576 56.1689 62.2996 56.0395C62.6414 55.91 62.9516 55.709 63.2091 55.4502C63.4666 55.1913 63.6657 54.8804 63.7928 54.5385C63.9197 54.1967 63.972 53.8316 63.9458 53.4678H63.9681Z" fill="#E7E7E7"/>
<path d="M77.7184 55.712C77.7184 58.2894 75.4899 59.3891 73.0384 59.3891C72.0591 59.4756 71.0763 59.2678 70.2164 58.7927C69.3567 58.3175 68.6591 57.5967 68.2136 56.7229L71.1331 55.0676C71.2515 55.4717 71.5052 55.8233 71.8518 56.0637C72.1985 56.3042 72.6171 56.4193 73.0384 56.3896C73.8519 56.3896 74.253 56.1341 74.253 55.6897C74.253 54.4566 68.6816 55.1121 68.6816 51.246C68.6816 48.8018 70.7542 47.5687 73.1387 47.5687C74.0186 47.5421 74.8897 47.7504 75.6617 48.1724C76.4336 48.5943 77.0783 49.2144 77.529 49.9683L74.5985 51.5015C74.469 51.2081 74.2569 50.9584 73.9878 50.7829C73.7188 50.6074 73.4046 50.5135 73.083 50.5127C72.5036 50.5127 72.147 50.7349 72.147 51.146C72.1916 52.4235 77.7184 51.5681 77.7184 55.712Z" fill="#E7E7E7"/>
<path d="M90.02 47.8691V59.0675H86.677V58.0233C86.2882 58.4873 85.7947 58.8529 85.237 59.0904C84.6793 59.328 84.073 59.4304 83.4679 59.3897C81.2393 59.3897 79.2671 57.7788 79.2671 54.746V47.8691H82.6099V54.2571C82.5805 54.5294 82.6124 54.8047 82.703 55.0631C82.7936 55.3216 82.9408 55.5567 83.134 55.7514C83.327 55.9461 83.5612 56.0954 83.8194 56.1885C84.0776 56.2818 84.3535 56.3164 84.6268 56.2902C85.8526 56.2902 86.7105 55.5791 86.7105 53.9906V47.8691H90.02Z" fill="#E7E7E7"/>
<path d="M109.341 52.2015V59.0671H105.999V52.4904C105.999 51.3795 105.453 50.6462 104.383 50.6462C103.313 50.6462 102.622 51.435 102.622 52.757V59.0671H99.2795V52.4904C99.2795 51.3795 98.7446 50.6462 97.6637 50.6462C96.5829 50.6462 95.9144 51.435 95.9144 52.757V59.0671H92.5715V47.8689H95.9144V48.9021C96.2638 48.4457 96.7219 48.0837 97.2474 47.849C97.7729 47.6142 98.3488 47.5141 98.9229 47.5578C99.4994 47.5298 100.074 47.6513 100.589 47.9102C101.104 48.1691 101.544 48.5568 101.865 49.0353C102.237 48.535 102.732 48.137 103.301 47.8786C103.87 47.6203 104.495 47.5098 105.118 47.5578C107.659 47.5578 109.341 49.4019 109.341 52.2015Z" fill="#E7E7E7"/>
<path d="M112.194 47.8023C113.573 47.8023 114.69 46.688 114.69 45.3137C114.69 43.9393 113.573 42.8252 112.194 42.8252C110.816 42.8252 109.698 43.9393 109.698 45.3137C109.698 46.688 110.816 47.8023 112.194 47.8023Z" fill="#E7E7E7"/>
<path d="M40.8802 34.2491C47.3358 34.2491 52.569 29.0314 52.569 22.5952C52.569 16.159 47.3358 10.9414 40.8802 10.9414C34.4247 10.9414 29.1914 16.159 29.1914 22.5952C29.1914 29.0314 34.4247 34.2491 40.8802 34.2491Z" fill="#E7E7E7"/>
<path d="M67.0101 34.2491C73.4657 34.2491 78.6989 29.0314 78.6989 22.5952C78.6989 16.159 73.4657 10.9414 67.0101 10.9414C60.5546 10.9414 55.3213 16.159 55.3213 22.5952C55.3213 29.0314 60.5546 34.2491 67.0101 34.2491Z" fill="#E7E7E7"/>
<path d="M26.4392 10.9414H3.07275V34.2379H26.4392V10.9414Z" fill="#E7E7E7"/>
</svg>
