<svg width="20" height="20" viewBox="0 0 20 20" fill="none" xmlns="http://www.w3.org/2000/svg">
<path d="M0.417942 3.71703C3.16287 6.04168 7.97935 10.1314 9.39498 11.4066C9.58502 11.5788 9.78885 11.6663 10.0004 11.6663C10.2116 11.6663 10.4151 11.5796 10.6047 11.4083C12.0215 10.1318 16.838 6.04168 19.583 3.71703C19.7539 3.57258 19.7799 3.31867 19.6416 3.14207C19.3217 2.73398 18.8449 2.5 18.3338 2.5H1.66712C1.15607 2.5 0.679153 2.73398 0.359349 3.14211C0.220989 3.31867 0.247044 3.57258 0.417942 3.71703Z" fill="#4E4E4E"/>
<path d="M19.7583 4.97635C19.6106 4.9076 19.4369 4.93158 19.314 5.03658C16.2699 7.61713 12.3848 10.9249 11.1625 12.0263C10.4764 12.6456 9.5243 12.6456 8.83664 12.0255C7.53375 10.8516 3.17094 7.14267 0.686016 5.03654C0.562305 4.93154 0.388164 4.90838 0.24168 4.97631C0.0944141 5.0447 0 5.19201 0 5.35435V15.8329C0 16.7521 0.747461 17.4995 1.66668 17.4995H18.3334C19.2525 17.4995 20 16.7521 20 15.8329V5.35435C20 5.19201 19.9056 5.04431 19.7583 4.97635Z" fill="#4E4E4E"/>
</svg>
