<svg width="80" height="80" viewBox="0 0 80 80" fill="none" xmlns="http://www.w3.org/2000/svg">
<path d="M71.6176 0H8.38383C6.57289 0 5.09961 1.47328 5.09961 3.28422V69.855V76.7158C5.09961 78.5267 6.57273 80 8.38383 80H26.2374C26.935 80 27.5005 79.4347 27.5005 78.7369C27.5005 78.0391 26.9349 77.4737 26.2374 77.4737H8.38383C7.96586 77.4737 7.62586 77.1338 7.62586 76.7158V71.1181H67.9726V77.4736H67.0043H25.292C24.5943 77.4736 24.0288 78.0391 24.0288 78.7367C24.0288 79.4345 24.5945 79.9998 25.292 79.9998H67.0043H69.2357H71.6176C73.4285 79.9998 74.9018 78.5266 74.9018 76.7156V67.8337V3.28422C74.9018 1.47328 73.4284 0 71.6176 0ZM12.4805 68.5919H7.62602V3.28422C7.62602 2.86641 7.96586 2.52625 8.38398 2.52625H12.4807L12.4805 68.5919ZM69.2355 68.5919H15.0068V2.52625H71.6173C72.0352 2.52625 72.3752 2.86625 72.3752 3.28422V67.8339C72.3752 68.2517 72.0354 68.5919 71.6173 68.5919H69.2355ZM72.3754 76.7158C72.3754 77.1336 72.0355 77.4737 71.6174 77.4737H70.4988V71.1183H71.6174C71.7205 71.1183 71.8223 71.1122 71.9229 71.1028C71.9385 71.1013 71.9543 71.1005 71.9698 71.0988C72.0651 71.0884 72.1592 71.0738 72.2518 71.0556C72.2699 71.052 72.2882 71.0483 72.3063 71.0444C72.3293 71.0395 72.3524 71.0356 72.3752 71.0302L72.3754 76.7158Z" fill="#151618"/>
<path d="M33.0263 43.1266V32.8672H30.9023L27.839 38.7048L24.8045 32.8672H22.666V43.1266H24.6601V36.3348L27.3043 41.3925H28.388L31.0324 36.3348V43.1266H33.0263Z" fill="#151618"/>
<path d="M37.1583 38.7048H41.4786V37.0864H37.1583V34.6153H42.1578V32.8672H35.1641V43.1266H42.2878V41.3781H37.1583V38.7048Z" fill="#151618"/>
<path d="M45.8435 36.5519L51.1177 43.1266H52.7362V32.8816H50.7421V39.6006L45.3957 32.8672H43.8496V43.1266H45.8435V36.5519Z" fill="#151618"/>
<path d="M54.7295 32.8654V32.8655V38.0962C54.7295 38.7609 54.809 39.4018 54.9678 40.018C55.1268 40.6346 55.3845 41.1766 55.7411 41.6437C56.0973 42.1109 56.5621 42.4868 57.1354 42.7707C57.7084 43.0551 58.4045 43.1968 59.2234 43.1968C60.0132 43.1968 60.6923 43.0621 61.2607 42.7923C61.829 42.5226 62.294 42.1566 62.6551 41.694C63.0164 41.2316 63.2814 40.6923 63.45 40.0759C63.6184 39.4595 63.7029 38.7995 63.7029 38.096V32.8652H61.7232V38.0962C61.7232 38.5202 61.6821 38.9321 61.6004 39.3316C61.5186 39.7315 61.3787 40.0857 61.1814 40.3937C60.9839 40.7023 60.7237 40.9524 60.4011 41.1452C60.0782 41.338 59.6809 41.4343 59.209 41.4343C58.7465 41.4343 58.3564 41.3404 58.0387 41.1526C57.7207 40.9648 57.4629 40.7166 57.2654 40.4084C57.0679 40.1001 56.9281 39.7462 56.8465 39.3463C56.7645 38.9466 56.7236 38.5298 56.7236 38.0963V32.8655H54.7295V32.8654Z" fill="#151618"/>
<path d="M49.8635 29.022H58.021C58.7188 29.022 59.2841 28.4567 59.2841 27.7589C59.2841 27.0611 58.7187 26.4958 58.021 26.4958H49.8635C48.9595 26.4958 48.1095 26.1436 47.4699 25.5041C47.006 25.0405 46.7507 24.4237 46.7507 23.768C46.7507 23.112 47.006 22.4953 47.4699 22.0316C47.793 21.7084 48.223 21.5302 48.6802 21.5302C49.1376 21.5302 49.5674 21.7083 49.8907 22.0317C50.1016 22.2427 50.2176 22.5228 50.2176 22.8212C50.2176 23.1197 50.1015 23.4002 49.8907 23.6108C49.3973 24.1041 49.3973 24.9039 49.8905 25.397C50.3838 25.8903 51.1837 25.8905 51.6768 25.3972C52.3649 24.7092 52.744 23.7944 52.744 22.8212C52.7441 21.8481 52.3652 20.9333 51.6773 20.2452C50.8768 19.4447 49.8126 19.0039 48.6804 19.0039C47.5482 19.0039 46.4841 19.4448 45.6838 20.2452C44.7427 21.1861 44.2246 22.4372 44.2246 23.7678C44.2246 25.0983 44.7427 26.3494 45.6837 27.2902C46.8001 28.4072 48.2845 29.022 49.8635 29.022Z" fill="#151618"/>
<path d="M27.7066 29.0217H35.8641C37.443 29.0217 38.9277 28.4069 40.0438 27.2903C40.9849 26.3494 41.503 25.0983 41.503 23.7678C41.503 22.4372 40.9849 21.1861 40.044 20.2453C39.2435 19.4448 38.1793 19.0039 37.0473 19.0039C35.9152 19.0039 34.851 19.4447 34.0504 20.2452C33.3624 20.9333 32.9835 21.8481 32.9835 22.8212C32.9837 23.7944 33.3626 24.7092 34.0507 25.3972C34.544 25.8906 35.3438 25.8905 35.837 25.397C36.3302 24.9037 36.3301 24.1039 35.8368 23.6108C35.626 23.4 35.5098 23.1195 35.5098 22.8212C35.5098 22.523 35.6259 22.2425 35.8366 22.0317C36.1601 21.7083 36.5898 21.5302 37.0471 21.5302C37.5041 21.5302 37.934 21.7083 38.2574 22.0317C38.7213 22.4953 38.9768 23.112 38.9768 23.768C38.9768 24.4237 38.7213 25.0403 38.2574 25.5042C37.6182 26.1436 36.7682 26.4958 35.864 26.4958H27.7065C27.0088 26.4958 26.4434 27.0611 26.4434 27.7589C26.4432 28.4567 27.0091 29.0217 27.7066 29.0217Z" fill="#151618"/>
<path d="M58.0209 47.043H49.8635C48.2845 47.043 46.8001 47.6578 45.6838 48.7744C44.7427 49.7153 44.2246 50.9664 44.2246 52.2969C44.2246 53.6275 44.7427 54.8786 45.6837 55.8194C46.4841 56.6198 47.5482 57.0608 48.6804 57.0608C49.8126 57.0608 50.8768 56.62 51.6773 55.8195C52.3652 55.1314 52.7441 54.2166 52.744 53.2434C52.744 52.2703 52.3651 51.3555 51.6768 50.6675C51.1834 50.1741 50.3835 50.1742 49.8905 50.6677C49.3973 51.1609 49.3973 51.9608 49.8907 52.4539C50.1016 52.6648 50.2176 52.9452 50.2176 53.2434C50.2176 53.5417 50.1015 53.8222 49.8907 54.033C49.5676 54.3564 49.1376 54.5345 48.6802 54.5345C48.2232 54.5345 47.7932 54.3564 47.4699 54.033C47.006 53.5694 46.7507 52.9527 46.7507 52.2967C46.7507 51.6409 47.006 51.0244 47.4699 50.5605C48.1093 49.9211 48.9593 49.5689 49.8634 49.5689H58.0209C58.7187 49.5689 59.284 49.0036 59.284 48.3058C59.2843 47.608 58.7187 47.043 58.0209 47.043Z" fill="#151618"/>
<path d="M35.864 47.043H27.7065C27.0088 47.043 26.4434 47.6083 26.4434 48.3061C26.4434 49.0039 27.009 49.5692 27.7065 49.5692H35.864C36.7682 49.5692 37.618 49.9214 38.2574 50.5609C38.7213 51.0245 38.9768 51.6412 38.9768 52.297C38.9768 52.953 38.7213 53.5697 38.2574 54.0334C37.9343 54.3566 37.5045 54.5348 37.0473 54.5348C36.5901 54.5348 36.1602 54.3567 35.8368 54.0333C35.626 53.8225 35.5099 53.5422 35.5099 53.2437C35.5099 52.9453 35.6262 52.6648 35.837 52.4542C36.3302 51.9609 36.3304 51.1611 35.8371 50.668C35.344 50.1745 34.5441 50.1747 34.0509 50.6678C33.3627 51.3558 32.9837 52.2706 32.9837 53.2437C32.9837 54.2169 33.3626 55.1317 34.0505 55.8198C34.851 56.6203 35.9152 57.0611 37.0474 57.0611C38.1796 57.0611 39.2438 56.6202 40.044 55.8198C40.9851 54.8789 41.5032 53.6278 41.5032 52.2972C41.5032 50.9667 40.9851 49.7156 40.0441 48.7748C38.9276 47.6581 37.443 47.043 35.864 47.043Z" fill="#151618"/>
<path d="M62.9904 26.4941L57.2641 26.4941C56.5663 26.4941 56.001 27.0595 56.001 27.7573C56.001 28.4551 56.5663 29.0204 57.2641 29.0204H62.9904C63.6882 29.0204 64.2535 28.4551 64.2535 27.7573C64.2535 27.0595 63.6881 26.4941 62.9904 26.4941Z" fill="#151618"/>
<path d="M62.9896 47.043H57.7631C57.0653 47.043 56.5 47.6083 56.5 48.3061C56.5 49.0039 57.0653 49.5692 57.7631 49.5692H62.9896C63.6875 49.5692 64.2528 49.0039 64.2528 48.3061C64.2528 47.6084 63.6873 47.043 62.9896 47.043Z" fill="#151618"/>
<path d="M22.8344 29.0204H29.2374C29.935 29.0204 30.5005 28.4551 30.5005 27.7573C30.5005 27.0595 29.9349 26.4941 29.2374 26.4941L22.8344 26.4941C22.1368 26.4941 21.5713 27.0595 21.5713 27.7573C21.5711 28.4551 22.1368 29.0204 22.8344 29.0204Z" fill="#151618"/>
<path d="M29.0005 47.043H22.8344C22.1368 47.043 21.5713 47.6083 21.5713 48.3061C21.5713 49.0039 22.1369 49.5692 22.8344 49.5692H29.0005C29.6981 49.5692 30.2636 49.0039 30.2636 48.3061C30.2636 47.6084 29.698 47.043 29.0005 47.043Z" fill="#151618"/>
</svg>
