<svg width="36" height="36" viewBox="0 0 36 36" fill="none" xmlns="http://www.w3.org/2000/svg">
<g clip-path="url(#clip0_420_4998)">
<path d="M9.95247 0.229402C9.64169 -0.0708182 9.14636 -0.0621629 8.84614 0.24862C8.55333 0.551847 8.55333 1.03251 8.84614 1.33566L25.5049 17.996L8.8446 34.6548C8.53382 34.955 8.52524 35.4503 8.82538 35.7612C9.1256 36.0719 9.62086 36.0805 9.93171 35.7804C9.93824 35.7741 9.94462 35.7677 9.95093 35.7612L27.1637 18.5484C27.4691 18.2429 27.4691 17.7477 27.1637 17.4421L9.95247 0.229402Z" fill="#F44336"/>
<path d="M9.3985 35.9912C8.9664 35.992 8.61549 35.6423 8.61469 35.2102C8.61432 35.0019 8.69706 34.802 8.84456 34.6549L25.5049 17.9961L8.84456 1.33733C8.53862 1.03139 8.53862 0.535397 8.84456 0.229456C9.15051 -0.0764853 9.6465 -0.0764853 9.95244 0.229456L27.1652 17.4422C27.4706 17.7477 27.4706 18.243 27.1652 18.5485L9.95244 35.7612C9.80574 35.9084 9.60637 35.9912 9.3985 35.9912Z" fill="#ACACAC"/>
</g>
<defs>
<clipPath id="clip0_420_4998">
<rect width="36" height="36" fill="white"/>
</clipPath>
</defs>
</svg>
