<svg width="20" height="20" viewBox="0 0 20 20" fill="none" xmlns="http://www.w3.org/2000/svg">
<path d="M17.2328 13.9201C16.0246 12.8867 14.7984 12.2608 13.605 13.2926L12.8925 13.9162C12.3711 14.3689 11.4017 16.484 7.65383 12.1726C3.90671 7.86665 6.13656 7.19621 6.65871 6.74743L7.3752 6.12304C8.56232 5.08889 8.11432 3.78704 7.25812 2.44694L6.74144 1.63524C5.88134 0.29826 4.94476 -0.579789 3.75451 0.452797L3.11139 1.01475C2.58534 1.39797 1.1149 2.64363 0.758219 5.01007C0.328951 7.84948 1.6831 11.101 4.78554 14.6686C7.88407 18.2378 10.9178 20.0306 13.7916 19.9993C16.1799 19.9736 17.6222 18.692 18.0733 18.2261L18.7188 17.6633C19.9059 16.6315 19.1684 15.581 17.9594 14.5453L17.2328 13.9201Z" fill="#4E4E4E"/>
</svg>
