<svg width="32" height="32" viewBox="0 0 32 32" fill="none" xmlns="http://www.w3.org/2000/svg">
<g clip-path="url(#clip0_420_5121)">
<path d="M30.2393 1.76026C29.0662 0.586825 27.6527 0 26.0001 0H5.99996C4.34734 0 2.93391 0.586825 1.76026 1.76026C0.586825 2.93391 0 4.34726 0 5.99996V25.9999C0 27.6524 0.586825 29.0659 1.76026 30.2396C2.93391 31.4132 4.34734 32.0001 5.99996 32.0001H25.9999C27.6525 32.0001 29.0659 31.4132 30.2391 30.2396C31.4127 29.0659 31.9996 27.6525 31.9996 25.9999V5.99996C31.9995 4.34726 31.4127 2.93369 30.2393 1.76026ZM24.4791 12.3126C24.4931 12.4376 24.5001 12.6248 24.5001 12.8752C24.5001 14.0419 24.3298 15.2121 23.9897 16.3853C23.6496 17.5592 23.1287 18.6842 22.427 19.7605C21.726 20.8367 20.8892 21.7884 19.9171 22.6147C18.9448 23.4407 17.7783 24.1008 16.4169 24.5935C15.0561 25.0869 13.5975 25.3336 12.0421 25.3336C9.62562 25.3336 7.38953 24.6804 5.33389 23.3754C5.66722 23.4168 6.01463 23.4378 6.37554 23.4378C8.38951 23.4378 10.202 22.8128 11.8132 21.5624C10.8689 21.5489 10.025 21.2575 9.28201 20.6874C8.53881 20.1181 8.0216 19.3959 7.72986 18.5209C8.09085 18.5763 8.36164 18.6039 8.54217 18.6039C8.84769 18.6039 9.20196 18.5484 9.60461 18.4376C8.59076 18.2428 7.73672 17.7398 7.04227 16.9273C6.34766 16.1147 6.00047 15.1877 6.00047 14.1461V14.1045C6.73638 14.4514 7.43083 14.632 8.08369 14.646C6.81978 13.7986 6.18786 12.5835 6.18786 11.0002C6.18786 10.2224 6.38911 9.48632 6.79191 8.79187C7.88901 10.1392 9.22261 11.2154 10.7918 12.0209C12.3612 12.8264 14.0419 13.278 15.8335 13.3751C15.7642 13.1113 15.7293 12.7778 15.7293 12.3751C15.7293 11.1666 16.1564 10.1355 17.0107 9.28128C17.8647 8.42709 18.896 7.99985 20.1042 7.99985C21.3823 7.99985 22.445 8.45832 23.2921 9.37504C24.2505 9.19452 25.1815 8.84017 26.0839 8.3126C25.7368 9.38176 25.0906 10.1944 24.1466 10.7499C25.0491 10.6247 25.8891 10.3887 26.6668 10.0416C26.0835 10.9304 25.3541 11.6873 24.4791 12.3126Z" fill="#D08C30"/>
</g>
<defs>
<clipPath id="clip0_420_5121">
<rect width="32" height="32" fill="white"/>
</clipPath>
</defs>
</svg>
